<?xml version="1.0" standalone="no"?>
<!DOCTYPE svg PUBLIC "-//W3C//DTD SVG 20010904//EN"
 "http://www.w3.org/TR/2001/REC-SVG-20010904/DTD/svg10.dtd">
<svg version="1.0" xmlns="http://www.w3.org/2000/svg"
 width="1279.000000pt" height="1279.000000pt" viewBox="0 0 1279.000000 1279.000000"
 preserveAspectRatio="xMidYMid meet">
<metadata>
Created by potrace 1.14, written by Peter Selinger 2001-2017
</metadata>
<g transform="translate(0.000000,1279.000000) scale(0.100000,-0.100000)"
fill="#000000" stroke="none">
<path d="M9603 12775 c-29 -8 -101 -34 -160 -58 -60 -25 -132 -52 -161 -62
-49 -16 -55 -16 -71 -1 -25 23 -52 20 -190 -18 -166 -47 -194 -51 -211 -32
-18 23 -69 20 -232 -13 -257 -52 -285 -55 -313 -37 -34 22 -54 20 -154 -13
-160 -54 -170 -55 -202 -32 -36 27 -59 26 -94 -1 -23 -18 -44 -22 -149 -26
-110 -4 -126 -2 -164 17 -50 25 -70 26 -94 4 -13 -12 -43 -17 -115 -20 -81 -4
-108 -1 -157 16 -71 25 -112 27 -120 5 -7 -18 -27 -16 -83 7 -29 12 -37 11
-62 -4 -37 -21 -70 -22 -100 -1 -31 22 -109 17 -531 -35 -468 -58 -1341 -129
-2109 -171 -182 -10 -185 -10 -220 12 -33 21 -49 23 -171 23 -122 0 -139 -2
-178 -23 -42 -22 -45 -22 -193 -12 -83 6 -259 22 -391 35 -133 14 -324 30
-425 36 -165 10 -189 9 -228 -6 -57 -21 -108 -79 -149 -170 -30 -64 -41 -78
-93 -113 -41 -28 -65 -52 -77 -81 -28 -60 -52 -63 -97 -10 l-37 44 -89 0
c-100 0 -128 -11 -199 -77 -40 -37 -48 -52 -88 -177 -40 -125 -76 -276 -91
-392 -5 -36 -1 -58 20 -109 25 -59 27 -74 23 -165 -3 -84 -7 -105 -24 -128
-18 -22 -21 -37 -17 -94 5 -99 61 -1261 78 -1653 8 -184 15 -420 15 -525 0
-172 -2 -193 -20 -223 -25 -41 -27 -67 -2 -57 44 18 52 17 62 -10 15 -40 12
-166 -5 -195 -8 -14 -17 -31 -21 -39 -4 -7 1 -36 11 -63 17 -47 17 -50 0 -69
-16 -17 -17 -22 -5 -44 12 -22 11 -28 -8 -48 -29 -30 -27 -44 8 -91 25 -33 30
-49 30 -98 0 -68 -14 -99 -64 -147 -27 -26 -36 -43 -36 -68 0 -42 17 -43 55
-3 36 38 45 38 45 0 0 -45 -26 -100 -63 -132 l-32 -28 38 -32 c20 -18 37 -40
37 -49 0 -9 -16 -37 -35 -62 -19 -25 -35 -55 -35 -66 0 -11 18 -33 40 -51 52
-41 52 -62 0 -193 -57 -146 -58 -156 -25 -237 l28 -69 -22 -41 c-26 -51 -26
-59 1 -114 l21 -44 -21 -41 c-26 -50 -27 -59 -5 -83 15 -17 15 -22 -5 -71 -31
-73 -31 -183 -1 -221 22 -27 22 -28 3 -81 -17 -51 -17 -55 -1 -73 22 -24 23
-90 2 -98 -8 -4 -15 -12 -15 -20 0 -11 5 -11 24 -2 37 16 56 4 56 -36 0 -28
-7 -40 -40 -66 -45 -35 -50 -61 -24 -112 15 -30 15 -34 -1 -65 -17 -31 -17
-34 -1 -52 17 -19 17 -21 0 -50 -17 -29 -17 -31 0 -50 18 -20 18 -22 1 -47
-17 -26 -16 -28 5 -75 l23 -48 -21 -64 c-26 -76 -27 -95 -6 -118 14 -16 14
-20 -2 -43 -16 -25 -16 -28 2 -47 17 -19 17 -22 -1 -75 -18 -55 -18 -55 3
-100 26 -54 30 -164 7 -204 -27 -47 -27 -51 -9 -71 15 -16 16 -23 6 -37 -24
-34 -25 -45 -2 -91 l22 -46 5 -980 c6 -1123 -2 -1422 -42 -1630 -62 -322 -68
-369 -68 -500 0 -120 2 -134 26 -185 34 -69 34 -121 2 -206 -85 -226 3 -575
169 -679 43 -26 58 -29 125 -30 92 0 126 15 211 91 34 30 78 63 100 74 52 26
187 65 283 80 104 17 127 8 127 -52 0 -40 5 -47 67 -107 109 -104 137 -121
201 -121 47 0 60 4 83 26 23 22 58 33 206 65 458 101 1185 239 1258 239 18 0
47 -7 65 -16 31 -16 34 -16 49 3 13 17 40 23 161 37 293 34 519 56 700 67 182
12 186 12 227 -9 56 -29 121 -29 158 0 26 20 28 21 57 3 28 -16 32 -16 74 0
46 18 66 17 120 -6 28 -11 34 -10 59 9 25 20 40 22 143 22 99 0 119 -3 148
-21 l34 -21 46 23 45 23 79 -28 c74 -26 88 -28 204 -25 101 3 128 7 143 22 25
22 34 22 85 -5 42 -22 51 -23 343 -22 289 0 302 1 342 22 50 26 66 27 84 6 16
-20 50 -15 236 32 153 38 185 41 204 18 17 -21 66 -16 381 36 262 44 388 59
743 90 473 40 558 50 620 72 78 28 165 30 194 4 11 -10 26 -15 33 -12 7 4 24
13 38 21 38 22 158 19 220 -5 61 -24 93 -25 110 -5 10 12 37 15 119 15 125 0
143 7 191 74 19 27 49 65 65 83 l30 35 27 -21 c36 -28 52 -26 83 10 34 41 28
55 -22 51 -50 -4 -56 7 -47 94 8 74 20 80 58 32 20 -26 28 -30 37 -21 20 20
23 123 5 166 -15 38 -16 38 -59 32 -40 -6 -46 -4 -66 20 -11 15 -21 39 -21 52
0 23 2 24 43 18 33 -5 46 -3 56 9 17 20 75 21 91 1 16 -19 39 -19 60 0 15 14
20 14 41 -4 23 -19 24 -19 64 9 59 41 139 130 168 186 52 103 70 203 42 234
-14 15 -13 20 5 43 11 14 20 34 20 44 0 11 -29 163 -64 339 -36 175 -70 357
-77 403 -19 132 -7 266 46 516 58 270 60 348 21 670 -51 419 -75 568 -96 597
-27 37 -26 44 20 85 43 39 51 73 25 107 -19 25 -19 63 0 96 19 33 19 60 -2 82
-15 17 -15 19 0 36 21 23 21 41 0 64 -15 17 -15 19 0 36 21 23 22 46 2 62 -14
12 -14 15 0 36 8 13 15 30 15 37 0 8 -7 20 -15 27 -14 12 -14 15 0 36 19 29
19 43 0 64 -14 15 -13 20 6 44 28 36 29 116 1 176 -19 40 -19 47 -7 67 19 28
19 47 0 63 -20 16 -19 60 1 88 20 30 14 36 -20 20 -35 -15 -46 -1 -46 65 0 55
19 70 51 41 16 -14 22 -15 28 -5 15 24 -7 81 -49 127 -49 54 -49 64 11 164 21
36 39 78 39 92 0 25 -2 26 -40 21 -35 -5 -40 -3 -40 14 0 10 7 28 15 39 18 24
18 54 0 78 -12 16 -11 22 7 46 28 39 28 111 -2 228 -21 86 -22 93 -7 110 25
27 21 40 -24 89 -38 41 -40 46 -25 62 20 22 20 40 1 61 -14 15 -13 19 4 42 22
28 25 21 -43 132 l-29 47 21 22 c24 25 23 36 -26 232 -43 172 -46 198 -28 234
21 39 20 81 -1 111 -17 23 -18 77 -18 780 l0 755 23 38 c25 44 28 83 7 111
-20 26 -19 76 2 105 14 21 18 72 26 345 10 358 2 967 -14 1065 -5 35 -20 89
-33 120 -13 31 -31 79 -39 108 -15 50 -15 53 5 79 17 21 21 41 22 99 0 65 -4
81 -36 146 -58 115 -60 124 -38 152 17 22 18 26 5 37 -19 16 -19 39 0 64 13
17 12 22 -5 44 -25 31 -25 63 0 112 25 49 25 77 0 115 -11 17 -20 34 -20 39 0
5 32 40 71 77 l71 68 -7 43 c-15 94 -97 232 -187 313 -89 80 -301 166 -591
239 l-138 35 -45 -22 -46 -22 -76 29 c-165 61 -187 67 -266 72 -54 3 -99 -1
-133 -11z m171 -830 c47 -25 91 -45 98 -45 6 0 20 8 30 17 17 15 23 15 51 4
53 -22 82 -24 96 -7 19 22 28 21 146 -24 117 -44 131 -47 155 -25 26 24 125
40 156 26 24 -10 25 -15 18 -49 -15 -77 -4 -261 45 -692 72 -648 79 -732 58
-775 -21 -44 -21 -54 0 -77 20 -22 15 -76 -52 -583 -72 -552 -75 -589 -45
-661 12 -28 11 -34 -11 -63 l-23 -32 23 -43 23 -44 -24 -43 -23 -44 0 -696 0
-696 24 -52 c23 -48 24 -55 11 -84 -24 -53 -15 -157 39 -429 28 -142 56 -300
63 -352 11 -90 11 -97 -12 -164 l-24 -70 30 -73 29 -74 0 -700 0 -700 -29 -62
c-34 -74 -33 -92 19 -313 59 -252 60 -261 30 -323 -31 -66 -33 -125 -4 -161
l21 -26 -21 -34 c-12 -18 -21 -40 -21 -48 0 -9 20 -55 45 -104 50 -98 54 -130
25 -199 -17 -41 -20 -69 -20 -221 l0 -175 -50 -53 -50 -53 -11 -112 c-8 -82
-8 -146 0 -238 11 -122 13 -130 56 -209 25 -45 45 -90 45 -99 0 -10 -9 -33
-21 -52 -25 -41 -23 -63 27 -268 46 -188 51 -233 29 -275 -11 -20 -15 -44 -11
-64 17 -96 17 -104 3 -133 -20 -38 -62 -61 -85 -47 -24 15 -27 52 -6 75 24 27
9 36 -25 16 -25 -15 -30 -15 -51 0 -21 15 -25 15 -50 -1 -37 -21 -79 -20 -110
4 -36 28 -47 25 -97 -25 -56 -57 -90 -60 -128 -11 -32 42 -54 51 -74 32 -13
-14 -17 -14 -32 0 -30 27 -39 8 -22 -42 22 -65 7 -78 -89 -78 -63 0 -90 7
-196 47 -142 54 -168 57 -184 23 -6 -15 -30 -33 -62 -47 -119 -51 -137 -61
-126 -74 8 -9 -7 -17 -62 -33 -202 -59 -333 -78 -344 -48 -3 8 2 26 11 40 26
40 -1 33 -50 -13 -52 -48 -92 -55 -286 -49 -115 3 -140 7 -176 26 -23 12 -50
22 -59 22 -9 0 -41 -23 -71 -51 l-55 -52 -99 5 c-82 4 -105 9 -129 27 -44 32
-73 27 -110 -19 -38 -48 -65 -51 -88 -10 -29 50 -45 48 -132 -14 l-40 -29 -23
21 c-21 20 -27 20 -127 11 -58 -5 -195 -21 -305 -34 -110 -14 -255 -30 -322
-35 -120 -11 -125 -10 -209 16 -81 25 -94 27 -221 21 -103 -4 -139 -9 -152
-21 -22 -20 -40 -20 -62 0 -16 14 -22 14 -67 -2 -44 -16 -54 -16 -77 -4 -22
12 -31 12 -58 1 -57 -24 -86 -24 -137 -2 -61 26 -103 26 -160 -1 -36 -17 -70
-22 -172 -26 -120 -4 -129 -3 -184 22 -56 26 -59 26 -163 16 -58 -6 -203 -24
-321 -41 -319 -44 -376 -47 -428 -20 -39 20 -48 21 -130 11 -48 -6 -163 -24
-257 -40 -197 -33 -260 -39 -277 -22 -16 16 -43 15 -58 -3 -19 -23 -111 -20
-142 4 -24 19 -25 19 -346 -47 -312 -64 -324 -65 -351 -49 -25 15 -30 15 -41
2 -17 -21 -43 -19 -75 7 -23 18 -26 26 -22 55 3 19 20 56 36 84 48 77 53 117
52 439 -1 279 -2 297 -21 322 -24 33 -25 44 -4 83 21 39 15 96 -31 334 -44
228 -54 354 -46 589 5 160 8 185 23 193 23 13 23 38 1 84 -16 34 -16 38 -1 65
16 28 16 31 -4 68 l-21 38 26 58 c33 72 36 142 7 179 -27 34 -25 48 14 145 47
113 52 139 31 162 -19 21 -18 45 8 200 20 114 69 992 107 1900 17 390 24 1275
12 1442 -9 117 -20 181 -56 322 -55 213 -84 427 -131 961 -21 243 -20 306 6
339 22 28 22 45 -2 103 -11 28 -11 34 4 51 9 10 17 26 17 35 0 8 -29 106 -65
216 -36 111 -65 209 -65 220 0 10 7 24 15 31 22 18 19 56 -20 244 -50 245 -53
285 -24 333 l24 38 -2 293 c-3 292 -3 294 -28 351 -26 57 -26 61 -23 258 l3
200 45 56 c108 137 110 143 44 203 -51 47 -56 80 -16 100 34 17 414 27 552 15
68 -6 183 -27 280 -51 191 -46 220 -48 269 -18 35 22 43 23 316 22 273 0 282
-1 375 -27 135 -38 152 -37 206 18 46 48 68 54 100 30 25 -19 43 -19 67 2 14
14 42 18 122 21 92 4 108 2 138 -17 43 -27 93 -27 262 -1 425 65 433 66 468
45 39 -23 4 -24 807 15 327 16 733 34 902 41 306 11 307 11 334 -10 34 -27 54
-27 90 2 26 20 39 22 155 22 107 0 130 -3 146 -17 28 -25 44 -23 177 22 131
45 157 48 201 23 21 -12 53 -17 110 -17 121 1 651 81 760 114 49 16 100 29
112 29 12 1 61 -19 107 -44z"/>
<path d="M5195 9443 c-11 -2 -103 -29 -205 -58 -139 -39 -220 -57 -325 -68
-228 -26 -281 -53 -339 -168 -35 -70 -35 -72 -19 -100 16 -27 16 -29 -2 -49
-17 -19 -17 -21 -2 -38 22 -24 21 -40 -4 -97 -30 -68 -24 -167 14 -221 37 -54
88 -86 146 -92 65 -6 113 11 191 68 80 59 184 116 227 125 29 6 38 1 82 -40
27 -25 58 -47 69 -48 11 0 43 9 71 22 49 23 51 24 93 8 54 -21 67 -21 89 -1
31 28 146 22 281 -14 183 -50 335 -107 357 -133 18 -22 21 -23 46 -9 26 14 28
13 60 -25 32 -38 34 -39 53 -22 32 30 73 22 117 -23 42 -43 65 -49 85 -25 20
24 69 19 81 -9 12 -26 143 -106 174 -106 10 0 27 8 37 17 17 15 21 15 56 -1
69 -33 104 -61 138 -115 33 -51 36 -52 54 -36 17 15 21 15 57 -3 63 -33 157
-111 175 -147 10 -19 111 -119 225 -224 115 -104 213 -196 218 -204 6 -8 23
-31 38 -50 15 -19 30 -48 31 -64 2 -15 4 -31 5 -35 0 -4 24 -23 52 -42 59 -40
74 -59 133 -176 44 -86 129 -210 144 -210 4 0 13 5 18 10 13 13 29 -4 88 -100
43 -70 58 -120 36 -120 -22 0 -8 -30 27 -58 36 -28 37 -31 24 -55 -12 -23 -12
-29 2 -51 17 -26 77 -72 77 -60 0 16 59 -49 71 -78 9 -22 9 -32 0 -41 -18 -18
-13 -37 19 -74 17 -19 28 -38 25 -43 -3 -5 11 -25 32 -44 37 -34 38 -34 19
-55 -21 -23 -15 -27 15 -10 17 9 26 5 55 -26 43 -46 52 -80 31 -118 -24 -41
-22 -52 20 -98 36 -40 37 -41 25 -85 -19 -70 -15 -95 33 -192 55 -114 65 -151
115 -443 22 -129 54 -290 71 -359 65 -272 168 -587 215 -662 76 -120 199 -204
242 -164 15 12 24 13 52 5 31 -10 47 -6 139 31 131 52 179 80 236 137 53 54
63 78 41 102 -22 24 -20 66 5 100 19 26 21 39 17 142 -4 106 -8 125 -55 264
-57 165 -131 440 -163 609 -18 98 -19 111 -5 126 21 23 20 28 -25 76 -44 48
-46 57 -25 94 36 62 4 165 -69 225 -51 42 -54 50 -28 95 17 30 16 31 -5 48
-17 13 -29 47 -53 145 -37 156 -57 198 -155 312 -89 103 -103 128 -86 149 14
17 5 40 -28 70 -13 12 -21 31 -21 53 0 29 -6 37 -55 68 -59 38 -63 46 -40 65
26 21 17 68 -27 143 -80 139 -138 215 -189 248 -41 26 -47 34 -37 46 13 16
-15 45 -183 194 -87 78 -187 213 -264 359 -45 86 -76 128 -173 233 -131 143
-273 275 -407 380 -104 81 -508 350 -638 425 -104 59 -280 126 -497 189 -194
55 -227 60 -268 39 -39 -20 -64 -10 -87 34 -18 34 -43 38 -80 14 -31 -20 -57
-11 -90 31 -28 38 -54 43 -95 20 -40 -23 -58 -18 -109 30 l-48 45 -90 0 c-75
0 -95 -3 -116 -20 -30 -24 -48 -25 -87 -5 -31 16 -123 27 -155 18z m-140 -713
c0 -18 -43 -26 -57 -12 -16 16 2 33 30 30 16 -2 27 -9 27 -18z"/>
<path d="M4775 8134 c-306 -66 -401 -118 -462 -252 -24 -51 -24 -54 -7 -73 17
-19 17 -21 1 -48 -16 -27 -16 -29 5 -47 28 -25 42 -61 68 -174 44 -187 78
-225 201 -225 68 0 83 4 154 40 49 24 96 59 128 92 41 42 54 50 65 40 12 -9
21 -4 46 26 37 44 53 42 81 -10 25 -47 113 -109 184 -130 62 -18 155 -12 181
12 22 20 23 20 75 -25 51 -45 57 -46 75 -25 19 22 41 18 75 -14 16 -16 65 -43
108 -60 156 -62 279 -137 387 -238 61 -56 62 -58 56 -100 -6 -49 4 -61 29 -33
23 25 39 17 70 -35 15 -26 60 -71 113 -113 68 -54 94 -82 119 -128 20 -36 65
-92 118 -144 92 -89 112 -121 176 -278 21 -52 56 -117 78 -146 58 -75 68 -102
48 -124 -23 -25 -21 -34 8 -62 54 -51 287 -507 335 -658 70 -215 98 -475 56
-521 -21 -23 -20 -44 5 -93 25 -49 21 -128 -8 -160 -16 -18 -16 -21 0 -47 16
-27 16 -30 -3 -54 -11 -14 -20 -35 -20 -46 0 -59 141 -254 206 -287 31 -15 59
-19 141 -18 151 2 177 12 276 108 136 132 164 201 174 426 9 224 -33 525 -111
795 -73 254 -296 806 -485 1197 -47 99 -70 134 -101 159 -38 30 -52 59 -30 59
27 0 2 40 -73 118 -49 51 -126 150 -186 239 -106 158 -224 289 -292 324 -22
11 -47 36 -62 62 -35 60 -53 72 -106 72 l-46 0 -3 42 c-3 36 -10 48 -54 88
-68 61 -102 79 -127 65 -35 -18 -53 -11 -117 54 -57 56 -70 64 -111 69 -40 4
-53 12 -83 46 -38 45 -51 49 -70 26 -23 -27 -59 -17 -111 32 l-50 46 -31 -23
c-37 -27 -31 -28 -378 67 -452 124 -512 131 -715 87z"/>
<path d="M4872 6759 c-18 -4 -65 -23 -105 -43 -43 -21 -140 -53 -245 -81 -336
-87 -409 -134 -501 -325 -34 -72 -36 -80 -36 -180 0 -67 5 -117 14 -138 16
-37 172 -171 236 -201 40 -19 68 -24 135 -22 28 1 43 11 85 55 43 47 64 60
153 95 126 50 227 79 307 87 l61 6 33 -41 c36 -45 46 -49 73 -24 17 15 21 15
54 0 19 -10 78 -45 132 -79 65 -41 136 -75 215 -104 65 -23 129 -52 142 -64
14 -14 42 -24 69 -27 83 -10 133 -72 277 -348 145 -278 200 -449 201 -620 1
-88 -2 -108 -26 -165 -68 -160 -68 -162 -62 -225 4 -39 18 -85 41 -132 38 -76
60 -95 148 -128 34 -13 61 -33 89 -67 43 -51 62 -57 94 -33 25 19 48 19 64 0
22 -27 72 -17 151 29 42 25 88 59 102 76 39 46 82 142 113 252 26 92 26 99 11
116 -21 23 -21 36 -2 52 8 7 15 27 15 45 0 18 -7 38 -15 45 -20 16 -19 39 3
63 15 16 17 40 17 166 -1 161 -12 217 -95 471 -105 318 -182 482 -337 720
-152 232 -308 345 -720 521 -54 23 -136 55 -183 71 -75 26 -86 27 -96 14 -16
-23 -29 -20 -69 15 -27 24 -38 29 -48 20 -10 -8 -22 -2 -48 25 -54 56 -65 59
-120 34 l-48 -23 -88 43 c-99 48 -143 59 -191 49z"/>
<path d="M10567 5053 c-4 -3 -7 -20 -7 -37 0 -35 15 -25 25 17 7 25 -3 36 -18
20z"/>
<path d="M4945 5006 c-16 -7 -52 -27 -79 -45 -40 -25 -60 -31 -105 -31 -36 0
-60 5 -72 16 -24 22 -64 11 -85 -21 -15 -24 -15 -27 0 -44 24 -26 20 -37 -30
-91 -49 -52 -81 -63 -104 -35 -8 10 -17 12 -22 7 -15 -15 117 -509 158 -598
14 -30 41 -48 209 -140 l50 -27 176 57 c197 63 312 114 323 142 4 11 10 51 13
89 4 56 -1 95 -26 200 -48 202 -99 342 -133 368 -87 67 -84 63 -65 84 24 27
11 35 -30 18 -53 -22 -68 -19 -97 25 -29 43 -36 46 -81 26z"/>
<path d="M8774 1329 c-3 -5 1 -11 8 -14 29 -9 47 -10 47 0 1 13 -47 26 -55 14z"/>
</g>
</svg>
