<svg viewBox="0 0 495 593" fill="none" xmlns="http://www.w3.org/2000/svg">
<path fill-rule="evenodd" clip-rule="evenodd" d="M11.5541 2.31081H384.75C389.855 2.31081 393.993 6.44915 393.993 11.5541V336.169C394.762 336.135 395.532 336.105 396.304 336.081V11.5541C396.304 5.17293 391.131 0 384.75 0H11.5541C5.17293 0 0 5.17292 0 11.554V501.446C0 507.827 5.17293 513 11.5541 513H238.549C238.487 512.231 238.429 511.461 238.377 510.689H11.5541C6.44916 510.689 2.31081 506.551 2.31081 501.446V11.554C2.31081 6.44915 6.44915 2.31081 11.5541 2.31081Z" fill="black"/>
<path fill-rule="evenodd" clip-rule="evenodd" d="M53.1487 25.4192H369.73V339.085C370.498 338.933 371.268 338.787 372.041 338.647V25.4192V23.1084H369.73H53.1487H50.8379V25.4192V433.277V435.588H53.1487H250.963C251.292 434.815 251.627 434.044 251.967 433.277H53.1487V25.4192Z" fill="black"/>
<line x1="398.901" y1="411.061" x2="398.901" y2="577.741" stroke="black" stroke-width="5"/>
<line x1="313.061" y1="491.9" x2="479.741" y2="491.9" stroke="black" stroke-width="5"/>
<line x1="31.1962" y1="513" x2="31.1962" stroke="black" stroke-width="2.31081"/>
</svg>
