<svg  viewBox="0 0 467 604" fill="none" xmlns="http://www.w3.org/2000/svg">
<path fill-rule="evenodd" clip-rule="evenodd" d="M11.5541 2.31081H384.75C389.855 2.31081 393.993 6.44915 393.993 11.5541V336.169C394.762 336.135 395.532 336.105 396.304 336.081V11.5541C396.304 5.17293 391.131 0 384.75 0H11.5541C5.17293 0 0 5.17292 0 11.554V501.446C0 507.827 5.17293 513 11.5541 513H238.549C238.487 512.231 238.429 511.461 238.377 510.689H11.5541C6.44916 510.689 2.31081 506.551 2.31081 501.446V11.554C2.31081 6.44915 6.44915 2.31081 11.5541 2.31081Z" fill="currentColor"/>
<mask id="path-2-inside-1_916_69" fill="white">
<path fill-rule="evenodd" clip-rule="evenodd" d="M53.1487 25.4192H369.73V339.085C370.498 338.933 371.268 338.787 372.041 338.647V25.4192V23.1084H369.73H53.1487H50.8379V25.4192V433.277V435.588H53.1487H250.963C251.292 434.815 251.627 434.044 251.967 433.277H53.1487V25.4192Z"/>
</mask>
<path fill-rule="evenodd" clip-rule="evenodd" d="M53.1487 25.4192H369.73V339.085C370.498 338.933 371.268 338.787 372.041 338.647V25.4192V23.1084H369.73H53.1487H50.8379V25.4192V433.277V435.588H53.1487H250.963C251.292 434.815 251.627 434.044 251.967 433.277H53.1487V25.4192Z" fill="currentColor"/>
<path d="M369.73 25.4192H421.73V-26.5808H369.73V25.4192ZM53.1487 25.4192V-26.5808H1.1487V25.4192H53.1487ZM369.73 339.085H317.73V402.324L379.777 390.105L369.73 339.085ZM372.041 338.647L381.349 389.807L424.041 382.039V338.647H372.041ZM372.041 23.1084H424.041V-28.8916H372.041V23.1084ZM50.8379 23.1084V-28.8916H-1.16211V23.1084H50.8379ZM50.8379 435.588H-1.16211V487.588H50.8379V435.588ZM250.963 435.588V487.588H285.361L298.819 455.932L250.963 435.588ZM251.967 433.277L299.501 454.36L331.914 381.277H251.967V433.277ZM53.1487 433.277H1.1487V485.277H53.1487V433.277ZM369.73 -26.5808H53.1487V77.4192H369.73V-26.5808ZM421.73 339.085V25.4192H317.73V339.085H421.73ZM362.732 287.487C361.713 287.672 360.696 287.865 359.683 288.065L379.777 390.105C380.3 390.002 380.824 389.903 381.349 389.807L362.732 287.487ZM320.041 25.4192V338.647H424.041V25.4192H320.041ZM320.041 23.1084V25.4192H424.041V23.1084H320.041ZM369.73 75.1084H372.041V-28.8916H369.73V75.1084ZM53.1487 75.1084H369.73V-28.8916H53.1487V75.1084ZM50.8379 75.1084H53.1487V-28.8916H50.8379V75.1084ZM102.838 25.4192V23.1084H-1.16211V25.4192H102.838ZM102.838 433.277V25.4192H-1.16211V433.277H102.838ZM102.838 435.588V433.277H-1.16211V435.588H102.838ZM53.1487 383.588H50.8379V487.588H53.1487V383.588ZM250.963 383.588H53.1487V487.588H250.963V383.588ZM204.432 412.195C203.983 413.208 203.541 414.225 203.108 415.245L298.819 455.932C299.043 455.405 299.27 454.881 299.501 454.36L204.432 412.195ZM53.1487 485.277H251.967V381.277H53.1487V485.277ZM1.1487 25.4192V433.277H105.149V25.4192H1.1487Z" fill="currentColor" mask="url(#path-2-inside-1_916_69)"/>
<line x1="31.1962" y1="513" x2="31.1962" stroke="currentColor" stroke-width="2.31081"/>
<path d="M378.692 579.303C360.272 579.325 342.324 573.472 327.458 562.595C312.593 551.718 301.583 536.384 296.029 518.821C290.476 501.258 290.668 482.381 296.577 464.935C302.487 447.488 313.807 432.381 328.891 421.809M378.981 406.107C390.34 406.117 401.586 408.37 412.072 412.736C422.559 417.103 432.081 423.496 440.09 431.551C448.1 439.606 454.441 449.163 458.749 459.673C463.057 470.184 465.247 481.442 465.193 492.801C465.175 506.775 461.807 520.54 455.371 532.942C448.935 545.345 439.619 556.024 428.204 564.083M378.692 384L378.827 429.563L347.087 405.915L378.692 384Z" stroke="currentColor" stroke-width="3" stroke-linecap="round" stroke-linejoin="round"/>
<path d="M378.525 602V556.437L410.169 580.182L378.525 602Z" stroke="currentColor" stroke-width="3" stroke-linecap="round" stroke-linejoin="round"/>
</svg>
