<svg  viewBox="0 0 100 103" fill="none" xmlns="http://www.w3.org/2000/svg">
<path d="M99.9992 52.1542C99.9992 47.9592 99.6588 44.898 98.9221 41.7234H51.0195V60.6574H79.1372C78.5706 65.3628 75.5093 72.449 68.7065 77.2106L68.6111 77.8445L83.757 89.5779L84.8064 89.6826C94.4434 80.7823 99.9992 67.687 99.9992 52.1542Z" fill="#4285F4"/>
<path d="M51.0198 102.041C64.7951 102.041 76.3596 97.5057 84.8066 89.6828L68.7068 77.2108C64.3985 80.2154 58.616 82.3129 51.0198 82.3129C37.5278 82.3129 26.0766 73.4129 21.9946 61.1113L21.3963 61.1621L5.64736 73.3504L5.44141 73.9229C13.8313 90.5895 31.065 102.041 51.0198 102.041Z" fill="#34A853"/>
<path d="M21.9953 61.1113C20.9182 57.9367 20.2948 54.5351 20.2948 51.0205C20.2948 47.5056 20.9182 44.1043 21.9386 40.9298L21.9101 40.2537L5.96378 27.8696L5.44205 28.1178C1.98415 35.034 0 42.8006 0 51.0205C0 59.2405 1.98415 67.0067 5.44205 73.9229L21.9953 61.1113Z" fill="#FBBC05"/>
<path d="M51.0198 19.7278C60.6002 19.7278 67.0626 23.8661 70.7476 27.3244L85.1466 13.2653C76.3034 5.04538 64.7951 0 51.0198 0C31.065 0 13.8313 11.4512 5.44141 28.1177L21.938 40.9297C26.0766 28.6281 37.5278 19.7278 51.0198 19.7278Z" fill="#EB4335"/>
</svg>
