<svg  viewBox="0 0 480 577" fill="none" xmlns="http://www.w3.org/2000/svg">
<path fill-rule="evenodd" clip-rule="evenodd" d="M11.5541 2.3433H384.75C389.855 2.3433 393.993 6.53982 393.993 11.7165V340.895C394.762 340.861 395.532 340.831 396.304 340.806V11.7165C396.304 5.24566 391.131 0 384.75 0H11.5541C5.17293 0 0 5.24565 0 11.7164V508.496C0 514.967 5.17293 520.213 11.5541 520.213H238.549C238.487 519.433 238.429 518.652 238.377 517.869H11.5541C6.44916 517.869 2.31081 513.673 2.31081 508.496V11.7164C2.31081 6.53982 6.44915 2.3433 11.5541 2.3433Z" fill="black"/>
<path d="M31.1962 520.213V0" stroke="black" stroke-width="2.31081"/>
<path fill-rule="evenodd" clip-rule="evenodd" d="M53.1487 25.7766H369.73V343.852C370.498 343.698 371.268 343.55 372.041 343.408V25.7766V23.4333H369.73H53.1487H50.8379V25.7766V439.369V441.712H53.1487H250.963C251.292 440.928 251.627 440.147 251.967 439.369H53.1487V25.7766Z" fill="black"/>
<path d="M394.594 558.564C376.407 558.583 358.686 553.651 344.009 544.486C329.332 535.321 318.461 522.4 312.978 507.602C307.495 492.803 307.685 476.897 313.519 462.197C319.354 447.496 330.531 434.766 345.423 425.858M394.879 412.628C406.094 412.636 417.198 414.534 427.551 418.213C437.905 421.893 447.306 427.28 455.214 434.067C463.123 440.854 469.383 448.907 473.637 457.763C477.89 466.62 480.052 476.106 479.999 485.677C479.981 497.452 476.656 509.05 470.301 519.5C463.947 529.951 454.749 538.949 443.479 545.74M394.594 394L394.727 432.392L363.389 412.466L394.594 394Z" stroke="black" stroke-width="2.48426" stroke-linecap="round" stroke-linejoin="round"/>
<path d="M394.5 576.952V539.258L425.758 558.902L394.5 576.952Z" stroke="black" stroke-width="2.48426" stroke-linecap="round" stroke-linejoin="round"/>
</svg>
