<svg viewBox="0 0 480 577" fill="none" xmlns="http://www.w3.org/2000/svg">
<g clip-path="url(#clip0_222_2)">
<path fill-rule="evenodd" clip-rule="evenodd" d="M11.5541 2.31081H384.75C389.855 2.31081 393.993 6.44915 393.993 11.5541V336.169C394.762 336.135 395.532 336.105 396.304 336.081V11.5541C396.304 5.17293 391.131 0 384.75 0H11.5541C5.17293 0 0 5.17292 0 11.554V501.446C0 507.827 5.17293 513 11.5541 513H238.549C238.487 512.231 238.429 511.461 238.377 510.689H11.5541C6.44916 510.689 2.31081 506.551 2.31081 501.446V11.554C2.31081 6.44915 6.44915 2.31081 11.5541 2.31081Z" fill="currentColor"/>
<path d="M397.901 410.061V576.741" stroke="currentColor" stroke-width="4"/>
<path d="M313.061 491.9H479.741" stroke="currentColor" stroke-width="4"/>
<path d="M28.5 33.5H311.612" stroke="currentColor" stroke-width="3" stroke-linecap="round"/>
<path d="M28.4951 64.4788H210.506" stroke="currentColor" stroke-width="3" stroke-linecap="round"/>
<path d="M28.5 127.5H210.511" stroke="currentColor" stroke-width="3" stroke-linecap="round"/>
<path d="M28.5 158.5H257.509" stroke="currentColor" stroke-width="3" stroke-linecap="round"/>
<path d="M28.4922 96H311.508" stroke="currentColor" stroke-width="3" stroke-linecap="round"/>
<path d="M28.5078 189.5H311.62" stroke="currentColor" stroke-width="3" stroke-linecap="round"/>
<path d="M28.5029 220.479H210.514" stroke="currentColor" stroke-width="3" stroke-linecap="round"/>
<path d="M28.5078 283.5H210.519" stroke="currentColor" stroke-width="3" stroke-linecap="round"/>
<path d="M28.5078 314.5H257.516" stroke="currentColor" stroke-width="3" stroke-linecap="round"/>
<path d="M28.5 252H311.516" stroke="currentColor" stroke-width="3" stroke-linecap="round"/>
<path d="M28.5029 345.5H210.514" stroke="currentColor" stroke-width="3" stroke-linecap="round"/>
</g>
<defs>
<clipPath id="clip0_222_2">
<rect width="480" height="577" fill="white"/>
</clipPath>
</defs>
</svg>
