<svg viewBox="0 0 1000 1279" fill="none" xmlns="http://www.w3.org/2000/svg">
<rect x="75" y="51" width="865" height="1154" rx="101" fill="white"/>
<path d="M137.593 1278.03C139.617 1276.29 141.049 1273.36 143.665 1272.76C191.011 1262.17 238.587 1252.42 286.486 1244.67C290.026 1244.07 293.149 1247.95 296.74 1247.95C298.112 1247.9 297.719 1244.72 299.077 1244.57C332.922 1240.29 366.882 1236.51 400.956 1234.82C404.611 1234.62 407.525 1238.3 411.136 1238.9C414.443 1239.49 417.939 1239.1 421.191 1238.25C423.071 1237.75 424.09 1235.02 426.034 1235.02C427.964 1235.02 428.939 1238.25 430.873 1238.2C434.374 1238.15 437.313 1234.87 440.819 1234.82C444.345 1234.77 447.373 1238 450.899 1238C452.843 1238 453.863 1235.27 455.742 1234.77C458.995 1233.87 462.451 1234.02 465.817 1234.02C470.84 1234.02 475.942 1233.78 480.865 1234.77C482.77 1235.12 483.769 1238.05 485.709 1238C489.259 1237.85 492.104 1234.02 495.655 1234.17C500.876 1234.37 505.392 1238.4 510.588 1238.9C518.873 1239.79 527.307 1239.35 535.567 1238.25C537.491 1238 538.471 1234.92 540.41 1235.02C543.971 1235.17 546.811 1238.7 550.371 1238.9C570.223 1240.04 590.164 1240.04 610.011 1238.9C613.576 1238.7 616.416 1235.17 619.976 1235.02C621.995 1234.92 623.144 1238.4 625.153 1238.2C638.481 1236.66 651.196 1231.34 664.528 1229.85C666.632 1229.65 667.801 1233.43 669.904 1233.23C692.173 1231.14 714.038 1225.82 736.252 1223.23C769.234 1219.35 802.458 1217.76 835.433 1213.79C839.932 1213.29 843.96 1210.55 848.428 1209.81C851.839 1209.26 855.423 1209.16 858.802 1209.91C860.7 1210.3 861.705 1213.14 863.647 1213.14C865.59 1213.14 866.584 1210.25 868.49 1209.91C873.411 1208.91 878.538 1208.66 883.52 1209.21C888.694 1209.81 893.387 1213.19 898.592 1213.34C900.538 1213.44 901.38 1210.2 903.3 1209.91C910.926 1208.61 919.51 1212.04 926.469 1208.66C933.164 1205.38 934.609 1195.58 940.928 1191.66C943.163 1190.26 945.428 1196.18 947.915 1195.34C951.336 1194.14 955.345 1190.46 954.747 1186.88C954.293 1184.2 948.339 1188.97 946.506 1186.88C944.269 1184.4 945.617 1180.22 945.779 1176.88C945.881 1174.8 945.2 1170.72 947.289 1170.77C950.584 1170.87 953.346 1179.97 954.914 1177.08C958.125 1171.12 957.614 1162.96 954.837 1156.85C953.602 1154.11 948.66 1157.94 945.829 1156.94C943.793 1156.2 942.355 1154.11 941.514 1152.12C940.834 1150.48 940.038 1147.7 941.571 1146.85C943.566 1145.81 945.938 1148.79 948.186 1148.49C950.1 1148.24 951.181 1145.86 953.022 1145.31C954.689 1144.76 956.6 1144.76 958.267 1145.31C960.109 1145.86 961.173 1148.44 963.105 1148.49C965.036 1148.54 966.146 1145.51 968.078 1145.51C970.01 1145.51 971.413 1149.48 973.053 1148.49C980.297 1143.96 986.975 1138 991.606 1130.84C996.077 1123.88 998.199 1115.52 999.57 1107.42C999.905 1105.43 996.417 1104.23 996.426 1102.24C996.435 1100.3 999.026 1099.26 999.617 1097.42C1000.17 1095.68 1000.04 1093.79 999.731 1092C995.349 1067.13 988.969 1042.67 985.551 1017.66C984.415 1009.35 985.019 1000.85 986.127 992.541C988.107 977.672 992.653 963.251 994.783 948.383C995.739 941.719 996.001 934.905 995.359 928.241C992.717 900.642 989.22 873.144 984.95 845.793C984.547 843.207 980.738 841.316 981.404 838.78C982.503 834.653 988.568 832.962 989.456 828.735C990.191 825.254 985.636 822.32 985.636 818.789C985.636 815.258 989.257 812.374 989.457 808.843C989.566 806.904 986.48 805.81 986.48 803.871C986.48 801.931 989.457 800.837 989.457 798.898C989.457 796.958 986.48 795.864 986.48 793.925C986.48 791.985 989.457 790.891 989.457 788.952C989.457 787.013 986.48 785.918 986.48 783.979C986.48 782.04 989.457 780.946 989.457 779.006C989.457 777.067 986.48 775.973 986.48 774.033C986.48 772.094 989.457 771 989.457 769.06C989.457 767.121 986.428 766.027 986.48 764.088C986.532 762.148 989.23 761.103 989.722 759.263C990.571 755.981 990.912 752.501 990.375 749.169C989.805 745.688 986.699 742.804 986.48 739.223C986.362 737.284 989.5 736.19 989.457 734.25C989.414 732.311 986.847 731.266 986.263 729.426C985.735 727.735 985.736 725.847 986.263 724.156C986.846 722.316 990.813 720.674 989.453 719.332C987.895 717.74 984.901 721.917 982.968 720.823C980.976 719.679 980.672 716.646 980.672 714.359C980.672 712.071 980.901 708.89 982.968 707.895C984.729 707.05 986.102 710.429 987.997 710.877C988.683 711.026 989.612 710.231 989.611 709.485C989.606 706.949 989.23 704.264 987.981 702.026C986.347 699.092 982.937 697.5 981.25 694.615C980.388 693.124 980.118 691.135 980.66 689.494C982.954 682.632 989.315 676.963 989.569 669.702C989.665 666.967 982.59 672.189 981.354 669.702C979.768 666.57 984.448 663.188 984.484 659.657C984.504 657.718 981.455 656.624 981.507 654.684C981.56 652.745 984.25 651.7 984.749 649.86C985.614 646.577 985.857 643.098 985.472 639.766C984.694 633.003 981.561 626.539 981.29 619.726C981.214 617.787 985.075 616.741 984.484 614.901C983.184 610.873 977.877 608.984 976.535 604.956C975.924 603.116 979.512 601.922 979.512 599.983C979.512 598.043 976.512 596.949 976.534 595.01C976.558 593.021 980.126 591.828 979.629 589.889C978.233 584.468 972.776 580.687 971.443 575.266C970.946 573.228 974.971 572.035 974.73 569.946C973.183 556.619 967.647 543.988 966.258 530.661C965.885 527.081 969.669 523.997 969.564 520.417C969.46 516.836 965.76 514.002 965.666 510.471C964.431 464.074 965.391 417.627 965.596 371.23C965.611 367.849 965.534 364.419 966.326 361.137C967.16 357.705 970.364 354.87 970.41 351.339C970.458 347.808 966.575 344.924 966.589 341.393C966.603 337.813 970.392 334.978 970.488 331.447C971.699 286.692 972.958 241.885 970.494 197.228C969.925 186.885 963.107 177.736 961.449 167.542C961.124 165.553 964.517 164.507 964.857 162.518C965.717 157.446 966.118 152.125 964.922 147.152C963.272 140.29 957.983 134.62 956.494 127.708C956.071 125.768 959.591 124.576 959.621 122.587C959.649 120.647 956.643 119.553 956.642 117.614C956.642 115.674 959.663 114.58 959.62 112.641C959.577 110.702 957.009 109.656 956.426 107.816C955.898 106.125 955.975 104.238 956.427 102.547C957.344 99.1656 960.426 96.2802 960.465 92.7495C960.503 89.2188 955.415 86.1356 956.643 82.8037C958.938 76.5876 969.617 74.4007 969.679 67.737C969.775 57.4432 963.246 47.795 957.048 39.5898C952.019 32.9261 944.731 27.8027 937.047 24.5206C918.351 16.564 898.733 10.648 878.87 6.42107C875.286 5.62541 872.062 10.3991 868.435 9.85206C859.921 8.65857 852.486 3.13771 844.057 1.3972C837.467 0.0545246 830.455 -0.642261 823.894 0.799873C810.219 3.88306 797.885 11.5926 784.25 14.8249C782.212 15.3222 780.988 11.2449 778.91 11.4935C767.2 12.9854 756.207 18.3545 744.497 19.8464C742.399 20.095 741.225 16.2675 739.122 16.4664C722.517 17.9582 706.405 23.2777 689.801 24.8192C687.697 25.0182 686.518 21.1409 684.43 21.4392C674.33 22.8814 665.075 28.3014 654.98 29.7436C652.981 30.0419 651.867 27.0089 649.948 26.4121C648.287 25.8651 646.358 25.8154 644.707 26.4121C642.867 27.0586 641.927 29.5945 639.997 29.8431C631.747 30.9869 623.313 31.2847 615.018 30.489C611.468 30.1906 608.618 26.7604 605.058 26.6112C603.118 26.5118 602.134 29.5447 600.214 29.8431C593.625 30.8874 586.847 31.1852 580.208 30.489C575.027 29.9917 570.342 26.5613 565.141 26.4121C563.206 26.3127 562.371 29.7921 560.436 29.7921C556.91 29.8418 553.882 26.6112 550.356 26.6112C548.422 26.6112 547.362 29.2451 545.518 29.7921C543.852 30.3391 541.932 30.3391 540.271 29.7921C538.347 29.1456 537.253 26.2629 535.229 26.4121C503.73 28.6499 472.536 34.2176 441.067 36.8532C379.831 41.9753 318.556 46.9485 257.17 49.6836C253.515 49.8825 250.626 46.0046 246.991 45.6067C238.771 44.6122 230.382 44.6122 222.161 45.6067C218.531 46.0046 215.642 49.8328 211.987 49.6836C173.76 48.3907 135.792 41.2809 97.5412 41.2312C92.1903 41.2312 87.4562 45.7065 83.8608 49.6351C79.6985 54.2598 78.9427 61.2209 75.0638 66.0446C72.1497 69.6748 67.2614 71.2659 63.9395 74.548C61.1796 77.2333 60.8314 83.45 56.9774 83.8478C53.0986 84.2457 51.9002 77.3828 48.2252 76.0899C43.496 74.3991 38.1949 75.0462 33.1922 75.444C30.6113 75.6429 27.8911 76.2893 25.8075 77.8309C21.501 81.0135 16.4088 84.1963 14.4892 89.2189C7.93002 106.326 3.33008 124.327 1.00278 142.478C0.336411 147.65 5.14519 152.225 5.75188 157.397C6.52765 164.061 6.18454 170.823 5.09051 177.436C4.77225 179.326 2.28581 180.273 1.63933 182.113C1.03264 183.804 1.42546 185.743 1.50503 187.533C4.45394 253.771 8.16866 319.959 10.7297 386.198C11.2419 399.426 11.7591 412.704 10.7248 425.932C10.4463 429.463 5.78173 432.496 6.82604 435.878C7.47748 438.016 11.3762 433.293 13.3156 434.387C15.3197 435.531 15.5086 438.563 15.6926 440.851C16.0905 445.873 16.0607 450.994 15.0363 455.917C14.6384 457.807 11.6149 458.655 11.5801 460.594C11.5204 464.125 14.7229 467.157 14.7727 470.688C14.8025 472.627 11.8884 473.721 11.8038 475.661C11.7293 477.252 14.7179 478.148 14.3649 479.689C13.8129 482.126 9.37211 483.021 9.58595 485.507C9.90918 489.336 14.2157 491.773 15.6827 495.353C16.3391 496.945 15.812 498.785 15.7623 500.525C15.6728 503.26 16.4883 506.244 15.265 508.73C13.0719 513.106 7.95486 515.693 5.96571 520.169C5.09546 522.158 5.2596 526.485 7.41783 526.485C10.7099 526.485 11.774 520.617 15.0412 520.169C16.7767 519.97 15.8567 523.649 15.618 525.39C15.265 527.926 14.6235 530.561 13.2957 532.749C11.769 535.286 7.08955 536.329 7.25863 539.313C7.45257 542.694 14.1958 543.491 14.1063 546.923C13.972 551.945 6.52766 555.029 6.70668 560.052C6.86581 564.428 15.0213 565.919 14.9417 570.345C14.7527 580.638 6.96525 589.689 5.97565 599.983C5.47836 605.154 10.4661 609.68 10.6452 614.901C10.7645 618.432 6.82604 621.316 6.82604 624.847C6.82604 628.378 10.6452 631.262 10.6452 634.793C10.6452 638.324 7.02495 641.208 6.82604 644.739C6.71664 646.678 9.91913 647.772 9.79978 649.711C9.58097 653.292 6.35857 656.126 5.90106 659.657C5.25459 664.63 5.53802 669.801 6.56243 674.724C6.96026 676.614 9.9838 677.461 10.0186 679.401C10.0783 682.931 6.82604 685.964 6.82604 689.494C6.82604 691.434 9.43679 692.479 10.0186 694.319C10.5457 696.01 10.5457 697.898 10.0186 699.588C9.43679 701.428 5.4684 703.07 6.83097 704.413C8.38748 706.004 11.4309 701.729 13.3156 702.922C15.2401 704.116 15.8468 707.396 14.9865 709.534C13.3604 713.463 7.69132 715.056 6.61221 719.184C5.71709 722.615 9.75005 725.747 9.79978 729.277C9.82961 731.217 6.82604 732.311 6.82604 734.25C6.82604 736.19 9.79978 737.284 9.79978 739.223C9.79978 741.163 6.82604 742.257 6.82604 744.196C6.82604 746.135 9.79978 747.229 9.79978 749.169C9.79978 751.108 6.71664 752.202 6.82604 754.142C7.02495 757.673 10.675 760.557 10.6452 764.088C10.6004 769.259 6.82601 773.933 6.6072 779.154C6.52266 781.094 9.75999 782.04 9.79978 783.979C9.84453 785.918 6.78128 787.013 6.82604 788.952C6.86582 790.891 10.0186 791.837 10.0186 793.777C10.0186 797.307 6.70172 800.34 6.82604 803.871C6.95036 807.451 10.2673 810.286 10.7248 813.816C11.3663 818.789 11.0331 823.96 10.0634 828.883C9.69042 830.773 6.87577 831.768 6.82604 833.708C6.77134 835.647 9.79978 836.741 9.79978 838.681C9.79978 840.62 6.70669 841.714 6.82604 843.654C7.04484 847.234 10.6651 850.069 10.7248 853.599C11.9928 931.524 13.3504 1009.45 10.7943 1087.32C10.0782 1109.11 3.31023 1130.34 0.923254 1152.02C0.0181912 1160.23 -0.0614155 1168.63 0.928186 1176.84C1.35585 1180.37 4.25507 1183.2 5.09051 1186.63C5.8812 1189.92 6.29886 1193.4 5.74687 1196.73C4.88657 1201.9 1.55974 1206.47 0.928186 1211.65C-0.0663884 1219.85 -0.528825 1228.36 0.923254 1236.46C2.39025 1244.72 5.22973 1252.87 9.55613 1259.98C12.8084 1265.35 17.2541 1270.82 23.1022 1273.06C29.4078 1275.5 37.0512 1275.5 43.3916 1273.11C51.4725 1270.13 56.326 1261.27 64.213 1257.79C74.8052 1253.12 86.407 1250.93 97.8396 1249.09C100.147 1248.74 103.091 1249.44 104.498 1251.28C106.189 1253.52 104.339 1257.2 105.781 1259.63C108.168 1263.61 111.943 1266.65 115.478 1269.63C119.178 1272.81 122.843 1276.34 127.393 1278.08M157.758 1188.37C156.022 1187.38 154.575 1185.29 152.551 1185.29C150.607 1185.24 149.403 1188.87 147.548 1188.27C144.575 1187.33 140.726 1184.74 140.944 1181.66C141.437 1174.6 148.518 1169.23 149.373 1162.22C151.596 1144.02 150.055 1125.57 150.035 1107.22C150.03 1103.83 150.224 1100.4 149.304 1097.12C148.772 1095.28 145.858 1094.38 145.848 1092.45C145.833 1088.82 149.557 1085.73 149.239 1082.15C147.633 1063.8 141.939 1045.95 140.164 1027.6C138.886 1014.42 139.92 1001.09 140.099 987.867C140.144 984.485 139.91 981.055 140.83 977.773C141.357 975.933 144.251 975.036 144.286 973.096C144.346 969.566 141.143 966.533 141.094 963.003C141.064 961.063 144.112 959.969 144.067 958.03C144.028 956.09 141.457 955.045 140.875 953.205C140.348 951.514 140.417 949.627 140.875 947.936C141.81 944.505 144.381 941.619 144.987 938.138C145.564 934.806 145.206 931.326 144.331 928.044C143.809 926.105 140.596 925.01 140.925 923.02C142.327 914.517 147.797 907.058 149.209 898.554C149.552 896.466 145.848 895.272 145.873 893.183C145.962 885.425 149.08 877.967 149.548 870.259C153.765 800.092 157.743 729.875 159.916 659.609C161.199 618.234 162.392 576.708 159.916 535.384C158.946 519.172 151.9 503.908 149.622 487.845C145.306 457.411 142.685 426.729 140.164 396.046C139.751 391.073 139.806 385.951 140.83 381.028C141.228 379.138 144.251 378.291 144.286 376.351C144.346 372.821 141.109 369.788 141.094 366.258C141.084 364.268 144.614 363.076 144.217 361.137C141.123 345.969 133.977 331.845 130.969 316.728C130.556 314.639 134.515 313.445 134.321 311.357C132.809 294.747 127.16 278.685 125.976 262.026C125.712 258.396 129.82 255.512 130.074 251.881C131.222 235.322 130.327 218.712 130.143 202.153C130.104 198.771 130.218 195.341 129.412 192.059C128.562 188.628 125.583 185.792 125.25 182.261C124.171 170.724 124.832 159.037 125.245 147.5C125.325 145.262 125.643 142.927 126.727 140.987C130.317 134.523 138.005 129.897 139.094 122.587C139.726 118.36 132.953 116.519 130.934 112.789C130.104 111.248 129.805 108.813 130.969 107.52C132.525 105.779 135.285 105.331 137.628 105.281C155.828 104.585 174.133 103.589 192.274 105.23C207.382 106.623 221.759 112.939 236.861 114.331C240.501 114.629 243.381 110.453 247.026 110.254C265.217 109.061 283.517 109.061 301.712 110.155C310.216 110.652 318.337 116.022 326.796 115.028C331.664 114.481 333.584 107.27 338.283 105.828C341.103 104.982 343.524 109.159 346.468 109.159C348.408 109.159 349.392 106.225 351.312 105.927C357.901 104.883 364.684 104.486 371.313 105.281C374.948 105.679 377.837 109.557 381.487 109.358C403.045 108.115 424.179 102.547 445.717 101.005C447.736 100.856 448.83 103.739 450.75 104.385C452.465 104.982 454.375 104.586 456.185 104.536C520.663 101.801 585.087 97.6734 649.6 96.0324C651.629 95.9826 652.718 98.7659 654.647 99.4124C656.308 99.9594 658.243 100.009 659.894 99.4124C661.734 98.7659 662.728 96.4787 664.603 95.9814C667.84 95.0365 671.311 95.2359 674.678 95.2359C679.701 95.2359 684.808 94.9371 689.726 95.9814C691.715 96.3792 692.754 99.6622 694.763 99.3638C704.829 97.9217 713.999 92.2032 724.098 90.9599C727.649 90.5124 730.702 93.8937 734.223 94.4905C737.635 95.0872 741.17 95.0376 744.612 94.59C765.94 92.0041 787.233 89.02 808.424 85.4893C815.335 84.3455 821.864 79.7692 828.839 80.4654C836.028 81.1616 841.542 87.7757 848.585 89.3671C850.529 89.8146 851.571 86.0866 853.564 86.0866C857.09 86.0369 860.122 89.2675 863.648 89.2675C865.66 89.2675 866.82 85.7871 868.804 86.1352C877.297 87.5773 884.795 92.9985 893.3 94.3909C895.297 94.739 896.33 91.3069 898.327 91.0085C903.315 90.1631 909.753 87.6779 913.495 91.0595C916.48 93.7946 911.229 98.9659 911.551 102.994C915.125 147.65 921.96 192.008 925.151 236.664C925.407 240.245 921.866 243.328 921.833 246.909C921.814 248.947 925.183 250.091 925.009 252.081C921.719 290.173 914.66 327.867 911.547 365.959C911.254 369.539 914.834 372.623 914.863 376.203C914.879 378.143 912.253 379.188 911.67 381.028C911.142 382.719 911.142 384.606 911.67 386.297C912.253 388.137 914.955 389.183 914.863 391.122C914.694 394.702 911.058 397.537 910.964 401.068C909.752 447.465 909.683 493.911 910.964 540.308C911.062 543.839 914.95 546.575 915.079 550.106C915.21 553.736 911.291 556.818 911.695 560.399C914.687 586.954 922.522 612.862 925.143 639.467C925.659 644.689 920.886 649.413 920.989 654.684C921.09 659.906 925.572 664.381 925.732 669.603C927.159 716 927.161 762.446 925.732 808.843C925.571 814.065 920.589 818.541 920.983 823.762C922.26 840.57 929.061 856.682 930.632 873.491C930.961 877.022 927.254 879.857 926.546 883.288C925.865 886.62 925.828 890.199 926.543 893.53C926.951 895.42 929.772 896.416 929.782 898.355C929.792 900.295 927.18 901.34 926.591 903.18C926.041 904.92 925.916 906.909 926.501 908.6C928.783 915.263 934.18 920.932 935.06 927.894C935.719 933.115 931.375 937.89 930.856 943.111C929.769 954.101 932.673 965.439 930.274 976.18C929.199 981.004 921.729 982.794 920.921 987.668C918.467 1002.44 918.847 1017.76 920.906 1032.57C921.901 1039.78 928.691 1045.26 929.899 1052.37C930.501 1055.95 925.615 1058.83 925.956 1062.46C927.389 1077.53 933.54 1091.85 935.086 1106.92C935.451 1110.45 931.725 1113.43 931.563 1117.01C931.384 1120.99 935.148 1124.82 934.099 1128.6C933.058 1132.38 929.794 1136.11 926.018 1137.15C923.904 1137.8 922.095 1134.27 921.833 1132.08C921.602 1130.14 924.365 1129 924.806 1127.11C924.963 1126.41 924.014 1125.47 923.342 1125.62C921.455 1126.06 920.286 1128.6 918.349 1128.6C916.417 1128.6 915.307 1125.57 913.376 1125.62C911.444 1125.67 910.38 1128.25 908.538 1128.8C906.872 1129.34 904.984 1129.24 903.294 1128.8C900.463 1128.05 898.065 1124.47 895.247 1125.27C890.484 1126.66 888.492 1134.27 883.543 1134.42C878.939 1134.57 876.838 1127.75 872.548 1126.06C871.095 1125.47 870.168 1128.65 868.61 1128.6C866.679 1128.5 864.318 1123.83 863.626 1125.62C862.232 1129.25 866.632 1133.52 865.313 1137.2C864.52 1139.39 860.986 1139.24 858.654 1139.44C855.257 1139.79 851.727 1139.74 848.427 1138.89C840.136 1136.66 832.42 1132.63 824.168 1130.29C822.432 1129.79 820.34 1129.54 818.756 1130.44C817.335 1131.18 817.632 1133.72 816.26 1134.57C810.551 1138.15 803.661 1139.64 798.066 1143.37C797.277 1143.92 800.818 1145.26 799.914 1145.56C788.241 1149.29 776.3 1152.47 764.175 1154.31C761.918 1154.66 758.701 1154.06 757.723 1152.02C756.889 1150.23 760.259 1148.89 760.701 1147C760.857 1146.3 759.827 1145.16 759.234 1145.51C755.568 1147.7 753.589 1152.87 749.4 1153.71C737.983 1156 726.088 1155.25 714.476 1154.36C709.881 1154.06 705.828 1149.24 701.308 1150.13C696.494 1151.13 694.55 1158.09 689.815 1159.33C683.296 1161.12 676.235 1159.78 669.576 1158.69C667.656 1158.39 666.707 1155.9 664.867 1155.25C663.216 1154.66 661.152 1154.41 659.62 1155.25C656.204 1157.14 654.722 1162.76 650.823 1162.96C647.422 1163.16 646.631 1156.05 643.225 1156.1C638.192 1156.25 634.975 1162.41 630.061 1163.51C628.023 1163.96 626.824 1160.08 624.735 1160.23C596.639 1161.87 568.845 1167.54 540.724 1168.73C535.453 1168.93 530.713 1165.1 525.472 1164.5C518.898 1163.66 512.224 1164.25 505.6 1164.4C502.234 1164.5 498.778 1164.25 495.525 1165.15C493.646 1165.65 492.626 1168.38 490.682 1168.38C488.747 1168.38 487.778 1165.2 485.843 1165.2C482.317 1165.2 479.289 1168.33 475.763 1168.38C473.834 1168.38 472.72 1165.3 470.79 1165.4C467.245 1165.6 464.395 1169.33 460.844 1169.23C455.638 1169.03 451.137 1164.55 445.926 1164.55C440.699 1164.55 436.174 1168.68 430.987 1169.28C422.772 1170.27 414.378 1170.27 406.158 1169.28C402.528 1168.88 399.638 1165 395.988 1165.2C369.398 1166.64 343.201 1172.71 316.616 1174.2C312.986 1174.4 310.107 1169.92 306.476 1170.17C286.565 1171.42 267.101 1176.93 247.22 1178.53C245.201 1178.68 244.067 1175.35 242.038 1175.35C240.094 1175.35 239.094 1178.18 237.194 1178.58C233.868 1179.32 230.307 1179.32 226.99 1178.58C225.006 1178.13 223.957 1174.85 221.943 1175.15M745.74 1147.15C743.567 1146.55 741.474 1145.41 739.221 1145.36C738.5 1145.36 737.212 1146.6 737.824 1147C739.748 1148.19 742.175 1148.59 744.447 1148.64M520.529 885.226C526.82 880.8 535.07 878.215 539.406 871.849C546.015 862.103 549.178 850.268 552.012 838.88C552.495 836.891 548.854 835.697 548.869 833.708C548.874 831.768 551.48 830.723 552.062 828.883C552.589 827.192 552.589 825.305 552.062 823.614C551.48 821.774 548.859 820.729 548.869 818.789C548.879 816.85 551.858 815.854 552.107 813.964C553.191 805.709 553.927 797.206 552.773 789C551.087 776.966 547.323 765.282 543.658 753.695C539.585 740.815 534.816 728.183 529.59 715.702C526.735 708.889 523.324 702.325 519.455 696.009C512.861 685.318 506.684 674.127 498.255 664.778C491.408 657.17 482.825 651.203 474.162 645.783C464.828 639.915 454.648 635.489 444.558 631.063C433.668 626.289 422.762 621.366 411.295 618.233C409.708 617.785 408.744 621.366 407.162 620.918C403.826 620.023 401.986 616.144 398.788 614.802C397.848 614.404 397.082 616.84 396.182 616.392C392.428 614.403 390.518 609.233 386.386 608.238C382.895 607.393 379.677 612.167 376.137 611.57C369.175 610.376 363.5 605.054 356.703 603.115C353.331 602.17 349.576 602.221 346.2 603.166C342.077 604.26 338.86 607.641 334.847 609.083C316.308 615.847 295.546 617.488 278.678 627.732C269.414 633.351 264.232 644.391 260.129 654.437C257.583 660.653 259.08 667.862 259.518 674.576C259.687 677.162 260.587 679.747 261.92 681.936C263.163 684.024 265.122 685.616 267.042 687.108C273.392 692.08 279.2 698.197 286.66 701.181C291.354 703.071 297.137 703.021 301.842 701.181C306.551 699.341 308.282 692.826 312.931 690.837C326.781 684.87 341.232 679.25 356.23 677.907C360.542 677.509 362.247 684.67 366.36 686.012C368.25 686.609 369.617 682.185 371.472 682.931C380.821 686.561 388.415 693.721 397.445 698.097C404.944 701.728 413.309 703.27 420.877 706.751C422.896 707.646 423.846 710.282 425.89 711.127C428.476 712.221 431.808 710.928 434.215 712.37C438.223 714.757 441.868 718.087 444.29 722.066C453.689 737.531 462.157 753.646 469.378 770.255C473.307 779.256 475.967 788.902 477.598 798.599C478.727 805.312 478.866 812.374 477.588 819.088C475.972 827.591 469.164 835.001 469.04 843.654C468.925 851.859 471.934 860.511 476.912 867.076C480.821 872.198 488.648 872.596 493.904 876.375C497.241 878.762 498.504 883.934 502.393 885.277C505.183 886.172 507.634 881.995 510.573 881.946C512.518 881.946 513.597 884.581 515.447 885.178M647.128 878.563C652.579 873.093 659.038 868.468 663.484 862.202C667.308 856.732 670.551 850.516 671.525 843.952C673.48 830.724 673.385 817.197 672.122 803.919C670.451 786.315 667.592 768.712 662.758 751.655C656.378 729.178 647.501 707.496 638.605 685.864C628.948 662.442 618.728 639.168 607.132 616.591C605.431 613.26 600.642 612.266 599.036 608.884C598.364 607.492 602.397 606.249 601.567 604.956C597.579 598.59 590.83 594.413 586.235 588.495C578.344 578.301 572.232 566.814 564.206 556.769C559.372 550.702 553.613 545.43 547.79 540.308C546.229 538.916 543.707 538.917 542.231 537.475C538.665 533.894 537.193 528.274 532.961 525.489C530.405 523.848 526.213 527.427 523.816 525.538C521.628 523.797 524.234 519.472 522.508 517.284C518.634 512.361 513.602 508.134 507.953 505.498C505.695 504.454 502.825 508.133 500.613 506.989C495.232 504.154 492.372 497.839 487.226 494.656C484.396 492.866 480.338 494.209 477.454 492.568C474.251 490.678 473.117 486.104 469.746 484.562C468.324 483.916 467.438 486.849 465.942 487.297C464.271 487.794 462.242 488.142 460.705 487.297C456.971 485.258 454.927 480.535 450.899 479.143C449.074 478.546 447.91 481.727 446.07 482.324C444.349 482.871 442.405 482.871 440.65 482.423C415.765 476.506 391.428 468.2 366.325 463.277C359.731 461.984 352.739 462.482 346.165 463.875C331.465 467.057 316.094 469.594 302.991 477.004C296.466 480.684 293.02 488.492 290.16 495.404C289.4 497.244 293.234 498.536 293.254 500.525C293.278 502.465 289.922 503.608 290.28 505.498C290.772 508.134 294.402 509.179 295.352 511.666C298.739 520.567 299.147 530.461 303.1 539.114C304.701 542.595 307.874 545.779 311.529 547.022C316.368 548.663 321.942 548.513 326.845 547.071C333.37 545.181 339.193 541.302 344.778 537.424C347.841 535.285 349.253 531.158 352.496 529.318C353.525 528.771 354.331 531.954 355.39 531.407C358.349 529.915 359.099 523.948 362.391 524.346C366.032 524.793 366.151 530.86 369.075 533.048C374.172 536.927 379.806 540.408 385.958 542.149C390.881 543.491 396.237 542.795 401.289 542.049C402.846 541.801 403.612 538.767 405.104 539.264C409.35 540.706 411.732 545.877 416.049 547.071C417.973 547.618 419.092 543.442 421.061 543.79C423.762 544.238 424.98 547.718 427.407 549.011C436.114 553.586 445.951 555.973 454.265 561.244C463.868 567.311 473.262 574.124 480.731 582.677C482.665 584.915 478.807 589.29 480.716 591.528C481.969 593.02 483.809 588.944 485.709 588.546C486.624 588.347 487.479 589.341 488.066 590.037C490.125 592.573 491.229 595.855 493.536 598.142C498.434 603.065 504.815 606.348 509.504 611.47C513.04 615.299 514.571 620.671 517.918 624.699C522.921 630.716 530.107 634.842 534.408 641.356C539.829 649.611 542.076 659.508 546.641 668.26C549.6 673.88 554.886 678.356 556.935 684.373C557.577 686.263 553.449 687.555 553.837 689.494C554.399 692.279 557.925 693.571 559.273 696.058C569.367 714.855 580.308 733.306 588.07 753.197C593.148 766.176 595.356 780.149 597.529 793.973C598.31 798.896 597.832 804.068 596.863 808.992C596.49 810.881 593.541 811.877 593.625 813.816C593.779 817.397 596.947 820.281 597.519 823.762C598.056 827.094 597.713 830.574 596.863 833.856C596.375 835.696 593.675 836.741 593.625 838.681C593.57 840.62 596.644 841.714 596.599 843.654C596.559 845.593 593.993 846.638 593.406 848.478C592.859 850.219 592.646 852.207 593.337 853.898C595.306 858.572 597.937 863.047 601.154 866.976C605.177 871.899 608.892 878.066 614.874 880.205C622.712 883.039 631.528 881.298 639.848 880.851M347.751 879.508C363.351 873.839 379.767 870.059 394.556 862.549C397.47 861.058 398.142 856.832 398.609 853.599C399.33 848.577 399.166 843.305 398.032 838.382C394.72 823.911 391.458 809.192 385.351 795.666C383.606 791.787 377.574 791.437 375.271 787.857C374.426 786.564 377.474 785.472 377.792 783.93C377.937 783.234 377.126 782.288 376.43 782.338C373.307 782.686 370.403 785.968 367.399 785.023C363.898 783.929 363.346 777.117 359.681 777.217C353.062 777.416 348.104 783.879 341.764 785.769C338.462 786.763 334.792 786.466 331.42 785.72C329.521 785.322 328.442 781.941 326.572 782.488C323.648 783.334 321.002 786.018 320.117 788.952C319.55 790.792 323.613 792.085 323.091 793.925C322.206 797.107 318.953 799.047 316.631 801.384C315.129 802.876 313.772 805.163 311.658 805.361C309.739 805.56 308.575 802.777 306.68 802.38C305.919 802.23 304.85 803.273 305.024 804.019C308.744 820.479 313.085 836.84 318.098 853.002C319.6 857.826 320.734 863.347 324.508 866.728M785.534 869.414C794.537 865.386 804.262 862.7 812.545 857.329C817.787 853.947 822.474 849.223 825.352 843.654C826.243 841.963 822.741 840.669 822.158 838.829C821.63 837.138 821.586 835.201 822.16 833.56C822.799 831.72 825.343 830.773 825.615 828.883C826.562 822.17 827.005 815.208 825.692 808.545C823.27 796.262 817.708 784.826 814.53 772.742C809.904 755.138 805.091 737.533 802.297 719.531C801.987 717.542 806.101 716.298 805.461 714.359C804.115 710.331 798.33 708.689 797.298 704.561C796.442 701.13 800.681 697.998 800.487 694.467C800.232 689.843 798.437 685.268 796.016 681.29C793.89 677.809 788.502 676.664 787.23 672.835C786.31 670 790.641 667.564 790.532 664.63C790.477 663.138 787.364 663.536 786.834 662.144C782.975 651.999 782.603 640.611 777.693 630.964C772.735 621.217 763.226 614.404 757.734 604.956C756.945 603.613 760.71 602.519 760.271 601.027C759.303 597.695 755.575 595.756 754.138 592.623C753.434 591.081 755.185 588.844 754.126 587.551C751.255 583.97 745.8 582.875 743.264 578.996C742.409 577.703 745.547 576.71 745.999 575.218C746.506 573.577 746.815 571.539 745.999 569.997C740.847 560.251 735.163 550.701 728.43 541.998C725.854 538.666 720.966 537.622 718.419 534.24C717.723 533.345 721.219 532.303 720.448 531.458C712.979 523.153 703.272 517.085 695.639 508.929C689.965 502.862 685.26 495.951 680.7 488.989C675.807 481.579 673.122 472.626 667.328 465.863C653.886 450.149 639.246 435.331 623.408 422.003C607.902 409.024 590.632 398.233 573.654 387.193C562.768 380.132 551.928 372.673 539.903 367.799C520.872 360.042 501.07 354.075 481.029 349.549C477.901 348.853 474.908 353.278 471.83 352.383C468.314 351.339 467.642 345.571 464.117 344.577C461.267 343.731 458.726 348.603 455.872 347.857C451.764 346.763 450.188 340.748 446.06 339.703C442.644 338.858 439.396 343.73 435.975 342.884C431.843 341.84 429.829 336.867 426.164 334.679C424.687 333.784 422.762 334.033 421.042 334.033C416.029 334.033 410.922 333.635 406.014 334.679C404.109 335.077 403.254 338.11 401.304 338.11C397.793 338.11 394.81 335.276 391.354 334.679C387.942 334.083 384.357 333.884 380.975 334.58C368.14 337.365 355.802 342.14 343.007 345.074C329.809 348.108 315.199 346.565 303.065 352.582C296.312 355.914 293.169 364.268 290.28 371.23C289.539 373.021 293.254 374.264 293.254 376.203C293.254 378.143 290.28 379.237 290.28 381.176C290.28 383.116 293.373 384.21 293.254 386.149C293.035 389.73 289.812 392.564 289.355 396.095C288.713 401.068 287.923 406.587 290.016 411.162C292.294 416.085 296.576 420.562 301.583 422.7C306.268 424.739 312.056 424.39 316.9 422.749C322.952 420.76 327.278 415.29 332.902 412.257C338.78 409.124 344.613 404.3 351.272 404.399C355.613 404.499 357.523 410.566 361.258 412.754C362.73 413.65 364.694 413.75 366.36 413.352C369.806 412.556 372.636 409.473 376.171 409.323C379.692 409.174 382.726 412.504 386.251 412.504C388.196 412.504 389.175 409.571 391.095 409.272C396.137 408.427 401.443 408.079 406.431 409.173C421.146 412.455 435.557 417.129 449.7 422.351C452.197 423.246 453.281 426.777 455.857 427.423C457.378 427.771 458.373 424.291 459.825 424.888C462.893 426.131 463.749 430.706 466.832 431.949C468.294 432.546 469.159 429.663 470.666 429.215C472.337 428.718 474.366 428.37 475.897 429.215C479.637 431.254 481.681 435.976 485.704 437.369C487.534 437.965 488.703 434.735 490.547 434.188C492.213 433.641 494.262 433.341 495.784 434.236C497.256 435.032 496.962 437.619 498.36 438.563C503.661 442.144 509.176 445.874 515.377 447.465C517.381 447.962 518.649 443.736 520.663 444.233C525.571 445.377 529.923 448.509 533.782 451.741C536.999 454.476 537.944 459.499 541.485 461.786C542.788 462.632 543.981 458.605 545.398 459.251C552.146 462.285 558.124 466.959 563.728 471.783C565.832 473.573 566.17 476.854 568.129 478.793C580.005 490.678 593.128 501.222 605.058 513.057C609.439 517.383 613.691 521.958 616.983 527.179C618.132 528.969 616.65 531.854 617.997 533.495C620.906 537.075 626.173 538.318 628.977 541.998C633.965 548.513 636.476 556.669 640.927 563.631C643.806 568.106 646.77 572.732 650.898 576.114C651.793 576.86 652.787 573.428 653.727 574.074C656.448 576.063 657.745 579.544 659.491 582.379C661.952 586.456 665.17 590.287 666.334 594.862C666.731 596.453 663.071 597.447 663.678 598.939C664.906 602.072 669.481 602.918 670.759 605.951C671.5 607.741 668.064 609.679 668.875 611.419C670.521 615 674.032 617.487 677.164 619.874C677.622 620.222 678.174 618.431 678.567 618.879C681.565 622.111 684.818 625.495 686.22 629.672C686.737 631.213 683.147 632.207 683.57 633.749C684.465 637.13 688.04 639.169 689.597 642.252C689.865 642.799 688.214 643.247 688.562 643.694C690.482 646.43 694.361 647.674 695.624 650.707C696.221 652.199 691.994 653.589 693.093 654.733C694.366 656.026 697.006 652.546 698.468 653.64C702.004 656.326 705.162 660.156 706.117 664.482C706.768 667.416 702.118 669.902 702.705 672.886C703.446 676.566 708.747 678.207 709.588 681.887C710.552 686.114 706.738 690.538 707.688 694.715C709.578 703.119 715.709 710.081 717.823 718.436C723.303 740.018 725.043 762.447 730.364 784.079C735.496 804.915 741.384 825.653 749.142 845.693C751.603 852.009 755.905 857.676 760.758 862.45C764.39 866.03 769.047 868.915 773.992 870.108C775.927 870.606 777.119 867.126 779.108 867.027M918.215 780.448C918.81 778.26 919.961 776.172 919.998 773.934C920.01 773.188 918.732 771.946 918.346 772.542C917.13 774.432 916.734 776.867 916.696 779.154M366.564 407.631C364.331 407.084 359.93 408.328 359.87 406.041C359.816 403.803 364.266 403.902 366.479 404.399" fill="black"/>
</svg>
