<svg viewBox="0 0 282 343" fill="none" xmlns="http://www.w3.org/2000/svg">
<g filter="url(#filter0_d_172_551)">
<path d="M218.333 39.4829H65.9194C53.0963 39.4829 42.7012 49.6619 42.7012 62.2184V276.517C42.7012 289.074 53.0963 299.253 65.9194 299.253H218.333C231.157 299.253 241.552 289.074 241.552 276.517V62.2184C241.552 49.6619 231.157 39.4829 218.333 39.4829Z" fill="white"/>
<path d="M57.3922 317.184C58.5416 320.977 98.9067 310.388 119.711 309.123C139.164 307.939 158.744 310.516 178.065 307.013C194.422 305.271 210.774 303.233 227.172 301.677C236.615 301.677 244.748 300.052 244.748 296.149C244.748 292.816 240.625 290.502 249.361 287.628C262.694 282.226 253.384 260.962 253.384 249.237C254.993 234.065 251.89 223.073 252.924 209.127C253.606 194.694 252.349 186.019 252.119 172.916C249.821 153.26 246.461 133.47 247.828 113.542C248.932 94.5352 250.726 75.3711 246.739 56.5518C244.944 45.0953 252.758 29.332 235.332 26.9387C220.966 23.1983 206.411 25.4286 192.115 28.9148C177.683 29.709 163.729 30.8467 148.556 30.8467C124.023 32.7234 99.7058 35.3294 75.0361 34.6567C62.6943 35.2145 41.9899 26.954 40.3807 42.0115C21.76 46.2644 26.6627 61.402 26.7227 73.3133C25.9875 90.1931 26.3577 106.609 27.8519 123.966C28.891 136.034 28.1225 144.885 27.8519 156.609C27.5071 171.552 28.6942 187.182 27.9645 202.192C27.6168 229.79 30.3701 257.607 27.0276 285.108C25.2165 295.087 19.4611 325 41.645 309.943C50.3807 303.391 56.2427 313.391 57.3922 317.184ZM62.0738 296.94C55.3198 290.938 60.7483 278.448 59.2839 269.381C55.7454 247.473 61.0256 225.646 61.2671 203.71C62.2708 179.181 65.5058 154.171 59.5963 130.042C57.2975 114.295 56.4417 98.8006 55.6182 82.7443C56.8503 71.0614 48.27 43.6616 67.8832 48.0106C80.1384 49.6892 92.4305 49.6969 104.709 48.9547C126.928 47.0771 149.316 47.211 171.608 46.0702C187.641 46.6561 203.448 44.0973 219.396 43.1245C228.367 44.1395 232.7 44.1381 233.504 56.5518C236.038 71.8476 235.668 85.7892 234.884 101.421C233.779 123.435 233.927 146.078 237.688 167.954C240.381 185.098 237.578 202.377 238.733 219.544C239.315 231.219 238.082 242.931 238.082 255.115C237.29 263.621 243.899 278.107 231.76 282.241C223.369 283.851 223.829 284.425 213.024 285.23C201.701 288.125 186.754 287.125 174.318 290.382C159.486 292.263 144.345 291.54 129.486 292.231C114.791 291.944 99.9549 292.667 85.3912 294.28C82.5491 294.607 79.6804 294.885 76.7025 294.885M145.464 227.257C158.08 217.858 151.915 200.008 147.292 187.858C141.788 173.928 127.874 167.054 114.063 164.226C103.36 161.499 82.6521 164.402 86.5417 179.619C92.6115 192.307 106.028 177.283 117.292 183.031C124.533 186.019 136.585 201.462 135.142 214.569C131.986 221.72 137.465 226.441 144.296 227.246M174.565 225.725C186.431 214.74 178.2 197.161 173.792 184.495C166.657 164.369 153.674 144.422 133.472 135.703C122.909 132.586 110.753 127.519 99.5396 131.651C85.6513 135.861 90.9554 151.667 107.674 145.49C116.316 147.579 127.757 149.467 135.573 157.169C145.448 164.916 152.005 176.134 157.062 187.054C164.074 199.467 158.235 215.311 166.637 225.837C168.609 226.774 170.826 226.66 172.892 226.251M105.748 225.942C120.97 228.778 119.736 200.064 105.71 203.169C93.5719 204.447 95.4435 215.47 100.395 223.26M206.493 223.146C223.729 218.994 211.095 199.501 210.317 188.381C209.027 175.323 198.773 156.134 196.38 153.125C188.583 143.325 180.803 133.385 172.598 124.016C160.72 112.559 145.416 104.648 128.964 102.72C117.476 99.8498 98.9953 99.0921 92.343 110.704C89.4504 128.32 108.429 114.319 117.421 117.794C129.972 121.261 143.295 123.852 154.082 131.567C165.465 141.518 175.524 153.567 181.928 167.127C192.456 182.006 191.227 201.297 197.731 217.827C198.978 220.657 201.32 223.146 204.769 223.146M236.881 203.172C237.018 202.672 237.154 202.173 237.29 201.674L236.881 203.172Z" fill="black"/>
</g>
<defs>
<filter id="filter0_d_172_551" x="0" y="0" width="281.545" height="343" filterUnits="userSpaceOnUse" color-interpolation-filters="sRGB">
<feFlood flood-opacity="0" result="BackgroundImageFix"/>
<feColorMatrix in="SourceAlpha" type="matrix" values="0 0 0 0 0 0 0 0 0 0 0 0 0 0 0 0 0 0 127 0" result="hardAlpha"/>
<feOffset/>
<feGaussianBlur stdDeviation="12.5"/>
<feColorMatrix type="matrix" values="0 0 0 0 1 0 0 0 0 1 0 0 0 0 1 0 0 0 1 0"/>
<feBlend mode="normal" in2="BackgroundImageFix" result="effect1_dropShadow_172_551"/>
<feBlend mode="normal" in="SourceGraphic" in2="effect1_dropShadow_172_551" result="shape"/>
</filter>
</defs>
</svg>
