<?xml version="1.0" encoding="UTF-8" standalone="no"?>
<svg
   viewBox="0 0 38 22.799999"
   fill="none"
   version="1.1"
   width="38"
   height="22.799999"
   xmlns="http://www.w3.org/2000/svg"
   xmlns:svg="http://www.w3.org/2000/svg">
  <path
     fill="#67e8f9"
     d="M 19,0 C 13.933333,0 10.766667,2.5333333 9.5,7.6 11.4,5.0666667 13.616667,4.1166667 16.15,4.75 17.595436,5.1113378 18.628529,6.1599689 19.771991,7.3206578 21.634836,9.2115378 23.790871,11.4 28.5,11.4 33.566667,11.4 36.733333,8.8666667 38,3.8 36.1,6.3333333 33.883333,7.2833333 31.35,6.65 29.904564,6.2886622 28.871471,5.2400311 27.727924,4.0793422 25.86508,2.1884453 23.709129,0 19,0 Z M 9.5,11.4 C 4.4333333,11.4 1.2666667,13.933333 0,19 1.9,16.466667 4.1166667,15.516667 6.65,16.15 8.0954356,16.511338 9.1285289,17.559969 10.271991,18.720742 12.134836,20.611538 14.290871,22.8 19,22.8 c 5.066667,0 8.233333,-2.533333 9.5,-7.6 -1.9,2.533333 -4.116667,3.483333 -6.65,2.85 C 20.404564,17.688662 19.371471,16.640031 18.228009,15.479258 16.365164,13.588462 14.209129,11.4 9.5,11.4 Z"
     style="stroke-width:0.844444" />
  <defs>
    <linearGradient
       x1="33.999001"
       x2="1"
       y1="16.181"
       y2="16.181"
       gradientUnits="userSpaceOnUse">
      <stop stop-color="%%GRADIENT_TO%%" />
      <stop
         offset="1"
         stop-color="%%GRADIENT_FROM%%"
      />
    </linearGradient>
  </defs>
</svg>
