<svg viewBox="0 0 1000 850" fill="none" xmlns="http://www.w3.org/2000/svg">
<rect width="1000" height="850" rx="40" fill="#ECEDEF"/>
<g filter="url(#filter0_d_89_27)">
<rect x="50" y="50" width="900" height="759" rx="40" fill="white"/>
</g>
<rect x="99" y="101" width="505" height="58" rx="29" fill="#6B7280"/>
<rect x="99" y="220" width="751" height="19" rx="9.5" fill="#ECEDEF"/>
<rect x="99" y="249" width="527" height="19" rx="9.5" fill="#E1F3FE"/>
<rect x="99" y="277" width="475" height="19" rx="9.5" fill="#ECEDEF"/>
<rect x="99" y="194" width="359" height="19" rx="9.5" fill="#E1F3FE"/>
<rect x="99" y="332" width="395" height="372" rx="30" fill="#F59F0A" fill-opacity="0.17"/>
<rect x="102.5" y="335.5" width="388" height="365" rx="26.5" stroke="#F59F0A" stroke-opacity="0.627451" stroke-width="7"/>
<rect x="524.5" y="335.5" width="380" height="365" rx="26.5" fill="#4ADE80" fill-opacity="0.14" stroke="#4ADE80" stroke-width="7"/>
<rect x="82" y="673" width="840" height="105" rx="28" fill="white" stroke="#ECEDEF" stroke-width="4"/>
<rect x="262" y="730" width="475" height="19" rx="9.5" fill="#ECEDEF"/>
<rect x="236" y="704" width="527" height="19" rx="9.5" fill="#ECEDEF"/>
<rect x="885" y="688" width="18" height="19" rx="9" fill="#ECEDEF"/>
<defs>
<filter id="filter0_d_89_27" x="48" y="49" width="904" height="763" filterUnits="userSpaceOnUse" color-interpolation-filters="sRGB">
<feFlood flood-opacity="0" result="BackgroundImageFix"/>
<feColorMatrix in="SourceAlpha" type="matrix" values="0 0 0 0 0 0 0 0 0 0 0 0 0 0 0 0 0 0 127 0" result="hardAlpha"/>
<feOffset dy="1"/>
<feGaussianBlur stdDeviation="1"/>
<feComposite in2="hardAlpha" operator="out"/>
<feColorMatrix type="matrix" values="0 0 0 0 0 0 0 0 0 0 0 0 0 0 0 0 0 0 0.05 0"/>
<feBlend mode="normal" in2="BackgroundImageFix" result="effect1_dropShadow_89_27"/>
<feBlend mode="normal" in="SourceGraphic" in2="effect1_dropShadow_89_27" result="shape"/>
</filter>
</defs>
</svg>
