<svg viewBox="0 0 1226 1504" fill="none" xmlns="http://www.w3.org/2000/svg">
<g filter="url(#filter0_d_46_119)">
<rect x="187.988" y="163.997" width="864.944" height="1153.92" rx="100.993" fill="white"/>
<path d="M250.584 1390.95C252.608 1389.21 254.04 1386.28 256.655 1385.68C303.999 1375.09 351.571 1365.34 399.467 1357.59C403.007 1356.99 406.13 1360.87 409.72 1360.87C411.093 1360.82 410.7 1357.64 412.057 1357.49C445.901 1353.21 479.858 1349.43 513.93 1347.74C517.585 1347.54 520.499 1351.22 524.109 1351.82C527.416 1352.41 530.911 1352.02 534.163 1351.17C536.043 1350.67 537.062 1347.94 539.007 1347.94C540.936 1347.94 541.911 1351.17 543.845 1351.12C547.346 1351.07 550.284 1347.79 553.79 1347.74C557.316 1347.69 560.344 1350.92 563.869 1350.92C565.814 1350.92 566.833 1348.19 568.713 1347.69C571.965 1346.79 575.421 1346.94 578.787 1346.94C583.809 1346.94 588.911 1346.69 593.834 1347.69C595.738 1348.04 596.738 1350.97 598.677 1350.92C602.228 1350.77 605.072 1346.94 608.622 1347.09C613.844 1347.29 618.359 1351.32 623.555 1351.82C631.839 1352.71 640.273 1352.26 648.532 1351.17C650.456 1350.92 651.436 1347.84 653.375 1347.94C656.936 1348.09 659.775 1351.62 663.335 1351.82C683.186 1352.96 703.126 1352.96 722.971 1351.82C726.536 1351.62 729.376 1348.09 732.936 1347.94C734.955 1347.84 736.104 1351.32 738.113 1351.12C751.439 1349.58 764.154 1344.26 777.485 1342.77C779.589 1342.57 780.757 1346.35 782.861 1346.15C805.128 1344.06 826.992 1338.74 849.204 1336.15C882.184 1332.28 915.406 1330.68 948.379 1326.71C952.877 1326.21 956.905 1323.47 961.373 1322.73C964.784 1322.18 968.368 1322.08 971.746 1322.83C973.644 1323.22 974.649 1326.06 976.591 1326.06C978.533 1326.06 979.527 1323.17 981.433 1322.83C986.354 1321.83 991.481 1321.58 996.463 1322.13C1001.64 1322.73 1006.33 1326.11 1011.53 1326.26C1013.48 1326.36 1014.32 1323.12 1016.24 1322.83C1023.87 1321.53 1032.45 1324.96 1039.41 1321.58C1046.1 1318.3 1047.55 1308.51 1053.87 1304.58C1056.1 1303.19 1058.37 1309.1 1060.85 1308.26C1064.27 1307.07 1068.28 1303.38 1067.68 1299.8C1067.23 1297.12 1061.28 1301.89 1059.44 1299.8C1057.21 1297.32 1058.56 1293.14 1058.72 1289.81C1058.82 1287.72 1058.14 1283.64 1060.23 1283.69C1063.52 1283.79 1066.28 1292.89 1067.85 1290.01C1071.06 1284.04 1070.55 1275.89 1067.78 1269.77C1066.54 1267.03 1061.6 1270.86 1058.77 1269.87C1056.73 1269.12 1055.29 1267.03 1054.45 1265.04C1053.77 1263.4 1052.98 1260.62 1054.51 1259.78C1056.5 1258.73 1058.88 1261.71 1061.12 1261.42C1063.04 1261.17 1064.12 1258.78 1065.96 1258.23C1067.63 1257.69 1069.54 1257.69 1071.2 1258.23C1073.05 1258.78 1074.11 1261.37 1076.04 1261.42C1077.97 1261.46 1079.08 1258.43 1081.01 1258.43C1082.95 1258.43 1084.35 1262.41 1085.99 1261.42C1093.23 1256.89 1099.91 1250.92 1104.54 1243.76C1109.01 1236.8 1111.13 1228.45 1112.5 1220.34C1112.84 1218.35 1109.35 1217.16 1109.36 1215.17C1109.37 1213.23 1111.96 1212.19 1112.55 1210.35C1113.11 1208.61 1112.98 1206.72 1112.67 1204.93C1108.28 1180.06 1101.9 1155.6 1098.49 1130.59C1097.35 1122.29 1097.96 1113.78 1099.06 1105.48C1101.04 1090.61 1105.59 1076.19 1107.72 1061.32C1108.67 1054.66 1108.94 1047.84 1108.29 1041.18C1105.65 1013.58 1102.16 986.087 1097.89 958.738C1097.48 956.152 1093.67 954.262 1094.34 951.726C1095.44 947.598 1101.5 945.908 1102.39 941.681C1103.13 938.2 1098.57 935.266 1098.57 931.736C1098.57 928.205 1102.19 925.321 1102.39 921.791C1102.5 919.851 1099.42 918.757 1099.42 916.818C1099.42 914.879 1102.39 913.785 1102.39 911.846C1102.39 909.906 1099.42 908.812 1099.42 906.873C1099.42 904.934 1102.39 903.84 1102.39 901.901C1102.39 899.961 1099.42 898.867 1099.42 896.928C1099.42 894.989 1102.39 893.895 1102.39 891.955C1102.39 890.016 1099.42 888.922 1099.42 886.983C1099.42 885.044 1102.39 883.95 1102.39 882.01C1102.39 880.071 1099.36 878.977 1099.42 877.038C1099.47 875.099 1102.17 874.053 1102.66 872.213C1103.51 868.931 1103.85 865.452 1103.31 862.12C1102.74 858.639 1099.63 855.755 1099.42 852.175C1099.3 850.236 1102.44 849.142 1102.39 847.202C1102.35 845.263 1099.78 844.218 1099.2 842.378C1098.67 840.687 1098.67 838.8 1099.2 837.109C1099.78 835.269 1103.75 833.627 1102.39 832.285C1100.83 830.694 1097.84 834.87 1095.9 833.776C1093.91 832.632 1093.61 829.6 1093.61 827.312C1093.61 825.025 1093.84 821.843 1095.9 820.849C1097.66 820.004 1099.04 823.383 1100.93 823.831C1101.62 823.98 1102.55 823.185 1102.55 822.439C1102.54 819.903 1102.17 817.218 1100.92 814.98C1099.28 812.047 1095.87 810.454 1094.19 807.57C1093.32 806.078 1093.05 804.09 1093.6 802.45C1095.89 795.587 1102.25 789.919 1102.5 782.659C1102.6 779.924 1095.53 785.145 1094.29 782.659C1092.7 779.526 1097.38 776.145 1097.42 772.614C1097.44 770.675 1094.39 769.581 1094.44 767.642C1094.5 765.702 1097.19 764.657 1097.68 762.817C1098.55 759.535 1098.79 756.056 1098.41 752.724C1097.63 745.961 1094.5 739.498 1094.23 732.686C1094.15 730.746 1098.01 729.701 1097.42 727.861C1096.12 723.834 1090.81 721.944 1089.47 717.916C1088.86 716.076 1092.45 714.883 1092.45 712.944C1092.45 711.004 1089.45 709.91 1089.47 707.971C1089.49 705.982 1093.06 704.79 1092.56 702.85C1091.17 697.43 1085.71 693.649 1084.38 688.229C1083.88 686.19 1087.91 684.998 1087.67 682.909C1086.12 669.583 1080.58 656.953 1079.19 643.627C1078.82 640.046 1082.61 636.963 1082.5 633.383C1082.4 629.803 1078.7 626.968 1078.6 623.438C1077.37 577.044 1078.33 530.6 1078.53 484.206C1078.55 480.825 1078.47 477.395 1079.26 474.113C1080.1 470.682 1083.3 467.847 1083.35 464.316C1083.39 460.786 1079.51 457.902 1079.53 454.371C1079.54 450.791 1083.33 447.956 1083.42 444.426C1084.64 399.673 1085.89 354.869 1083.43 310.216C1082.86 299.873 1076.04 290.725 1074.39 280.531C1074.06 278.542 1077.45 277.496 1077.79 275.507C1078.65 270.435 1079.06 265.115 1077.86 260.143C1076.21 253.281 1070.92 247.611 1069.43 240.699C1069.01 238.76 1072.53 237.568 1072.56 235.579C1072.59 233.639 1069.58 232.545 1069.58 230.606C1069.58 228.667 1072.6 227.573 1072.56 225.634C1072.51 223.694 1069.95 222.649 1069.36 220.809C1068.84 219.119 1068.91 217.231 1069.37 215.54C1070.28 212.159 1073.36 209.274 1073.4 205.743C1073.44 202.213 1068.35 199.13 1069.58 195.798C1071.88 189.583 1082.55 187.396 1082.62 180.733C1082.71 170.439 1076.18 160.792 1069.99 152.587C1064.96 145.924 1057.67 140.801 1049.99 137.519C1031.29 129.563 1011.67 123.647 991.813 119.421C988.229 118.625 985.006 123.398 981.379 122.851C972.865 121.658 965.43 116.138 957.002 114.397C950.413 113.055 943.401 112.358 936.841 113.8C923.166 116.883 910.833 124.592 897.199 127.824C895.162 128.321 893.937 124.244 891.859 124.493C880.15 125.985 869.158 131.353 857.449 132.845C855.35 133.094 854.177 129.266 852.073 129.465C835.47 130.957 819.359 136.276 802.756 137.818C800.652 138.017 799.474 134.139 797.385 134.438C787.286 135.88 778.032 141.3 767.938 142.742C765.939 143.04 764.825 140.007 762.906 139.41C761.245 138.863 759.316 138.814 757.665 139.41C755.825 140.057 754.885 142.593 752.956 142.841C744.706 143.985 736.273 144.283 727.978 143.487C724.428 143.189 721.579 139.759 718.018 139.609C716.079 139.51 715.095 142.543 713.175 142.841C706.587 143.885 699.809 144.183 693.171 143.487C687.989 142.99 683.305 139.56 678.104 139.41C676.17 139.311 675.334 142.79 673.4 142.79C669.874 142.84 666.846 139.609 663.32 139.609C661.386 139.609 660.327 142.243 658.482 142.79C656.816 143.337 654.897 143.337 653.236 142.79C651.312 142.144 650.218 139.261 648.194 139.41C616.698 141.648 585.505 147.215 554.039 149.851C492.807 154.973 431.535 159.945 370.154 162.68C366.499 162.879 363.61 159.002 359.975 158.604C351.755 157.609 343.367 157.609 335.147 158.604C331.517 159.002 328.628 162.83 324.973 162.68C286.749 161.388 248.784 154.278 210.535 154.229C205.184 154.229 200.451 158.704 196.855 162.632C192.693 167.256 191.938 174.217 188.059 179.04C185.145 182.67 180.257 184.261 176.935 187.543C174.176 190.228 173.827 196.445 169.974 196.842C166.095 197.24 164.897 190.378 161.222 189.085C156.493 187.394 151.192 188.041 146.19 188.439C143.609 188.638 140.889 189.284 138.806 190.826C134.5 194.008 129.408 197.191 127.488 202.213C120.93 219.319 116.33 237.319 114.003 255.469C113.336 260.64 118.145 265.215 118.752 270.387C119.527 277.05 119.184 283.811 118.09 290.425C117.772 292.314 115.286 293.261 114.639 295.101C114.033 296.792 114.425 298.73 114.505 300.521C117.454 366.755 121.168 432.938 123.729 499.173C124.241 512.4 124.758 525.677 123.724 538.904C123.446 542.435 118.781 545.468 119.826 548.849C120.477 550.988 124.375 546.265 126.315 547.359C128.319 548.502 128.508 551.535 128.692 553.822C129.089 558.844 129.06 563.965 128.035 568.888C127.637 570.777 124.614 571.625 124.579 573.564C124.52 577.095 127.722 580.127 127.772 583.657C127.802 585.597 124.888 586.691 124.803 588.63C124.728 590.221 127.717 591.116 127.364 592.658C126.812 595.094 122.372 595.989 122.585 598.475C122.909 602.304 127.215 604.741 128.682 608.321C129.338 609.912 128.811 611.752 128.761 613.493C128.672 616.228 129.487 619.211 128.264 621.697C126.071 626.073 120.954 628.66 118.965 633.135C118.095 635.124 118.259 639.45 120.417 639.45C123.709 639.45 124.773 633.583 128.04 633.135C129.776 632.936 128.856 636.615 128.617 638.355C128.264 640.891 127.623 643.527 126.295 645.715C124.768 648.251 120.089 649.294 120.258 652.278C120.452 655.659 127.195 656.456 127.105 659.887C126.971 664.909 119.527 667.993 119.706 673.015C119.865 677.391 128.02 678.882 127.941 683.307C127.752 693.601 119.965 702.65 118.975 712.944C118.478 718.115 123.465 722.64 123.644 727.861C123.764 731.392 119.826 734.276 119.826 737.806C119.826 741.337 123.644 744.221 123.644 747.752C123.644 751.282 120.024 754.166 119.826 757.697C119.716 759.636 122.918 760.73 122.799 762.669C122.58 766.249 119.358 769.084 118.901 772.614C118.254 777.587 118.538 782.757 119.562 787.68C119.96 789.57 122.983 790.417 123.018 792.356C123.078 795.887 119.826 798.919 119.826 802.45C119.826 804.389 122.436 805.434 123.018 807.274C123.545 808.965 123.545 810.852 123.018 812.543C122.436 814.383 118.468 816.025 119.831 817.367C121.387 818.958 124.43 814.683 126.315 815.876C128.239 817.07 128.846 820.35 127.986 822.488C126.359 826.416 120.691 828.01 119.612 832.137C118.717 835.568 122.749 838.699 122.799 842.23C122.829 844.169 119.826 845.263 119.826 847.202C119.826 849.142 122.799 850.236 122.799 852.175C122.799 854.114 119.826 855.208 119.826 857.148C119.826 859.087 122.799 860.181 122.799 862.12C122.799 864.059 119.716 865.153 119.826 867.093C120.024 870.623 123.674 873.507 123.644 877.038C123.6 882.209 119.826 886.882 119.607 892.104C119.522 894.043 122.759 894.989 122.799 896.928C122.844 898.867 119.781 899.961 119.826 901.901C119.865 903.84 123.018 904.786 123.018 906.725C123.018 910.256 119.701 913.288 119.826 916.818C119.95 920.398 123.267 923.233 123.724 926.763C124.366 931.736 124.032 936.906 123.063 941.829C122.69 943.719 119.875 944.714 119.826 946.654C119.771 948.593 122.799 949.687 122.799 951.626C122.799 953.565 119.706 954.659 119.826 956.599C120.044 960.179 123.664 963.013 123.724 966.544C124.992 1044.46 126.35 1122.38 123.794 1200.25C123.078 1222.03 116.31 1243.27 113.923 1264.95C113.018 1273.15 112.939 1281.55 113.928 1289.76C114.356 1293.29 117.255 1296.13 118.09 1299.56C118.881 1302.84 119.298 1306.32 118.746 1309.65C117.886 1314.82 114.56 1319.4 113.928 1324.57C112.934 1332.77 112.471 1341.28 113.923 1349.38C115.39 1357.64 118.229 1365.79 122.556 1372.9C125.808 1378.27 130.253 1383.74 136.101 1385.98C142.406 1388.42 150.049 1388.41 156.389 1386.03C164.469 1383.04 169.322 1374.19 177.209 1370.71C187.8 1366.04 199.401 1363.85 210.833 1362.01C213.14 1361.66 216.084 1362.36 217.491 1364.2C219.182 1366.44 217.332 1370.12 218.774 1372.55C221.161 1376.53 224.935 1379.56 228.471 1382.55C232.17 1385.73 235.835 1389.26 240.385 1391M270.747 1301.29C269.012 1300.3 267.565 1298.21 265.541 1298.21C263.597 1298.16 262.394 1301.79 260.539 1301.2C257.565 1300.25 253.717 1297.67 253.935 1294.58C254.428 1287.52 261.508 1282.15 262.364 1275.14C264.586 1256.94 263.045 1238.49 263.025 1220.14C263.02 1216.76 263.214 1213.33 262.294 1210.05C261.762 1208.21 258.848 1207.31 258.838 1205.37C258.823 1201.74 262.548 1198.66 262.23 1195.08C260.623 1176.73 254.93 1158.88 253.155 1140.53C251.877 1127.36 252.911 1114.03 253.09 1100.8C253.135 1097.42 252.901 1093.99 253.821 1090.71C254.348 1088.87 257.242 1087.97 257.277 1086.03C257.337 1082.5 254.134 1079.47 254.084 1075.94C254.055 1074 257.103 1072.91 257.058 1070.97C257.018 1069.03 254.447 1067.98 253.866 1066.14C253.339 1064.45 253.408 1062.56 253.866 1060.87C254.8 1057.44 257.371 1054.56 257.978 1051.08C258.555 1047.75 258.197 1044.27 257.322 1040.98C256.799 1039.04 253.587 1037.95 253.915 1035.96C255.318 1027.46 260.787 1020 262.2 1011.5C262.543 1009.41 258.838 1008.21 258.863 1006.13C258.953 998.368 262.07 990.91 262.538 983.202C266.755 913.04 270.733 842.828 272.906 772.566C274.188 731.194 275.382 689.671 272.906 648.349C271.936 632.139 264.89 616.875 262.612 600.814C258.296 570.382 255.676 539.701 253.155 509.021C252.742 504.048 252.797 498.926 253.821 494.003C254.219 492.114 257.242 491.266 257.277 489.327C257.337 485.796 254.099 482.764 254.084 479.234C254.075 477.245 257.605 476.052 257.207 474.113C254.114 458.947 246.969 444.824 243.96 429.707C243.548 427.619 247.506 426.425 247.312 424.337C245.8 407.728 240.151 391.667 238.968 375.009C238.704 371.379 242.812 368.495 243.065 364.865C244.214 348.306 243.319 331.698 243.135 315.14C243.095 311.758 243.21 308.328 242.404 305.046C241.554 301.615 238.575 298.78 238.242 295.249C237.163 283.713 237.824 272.026 238.237 260.49C238.317 258.252 238.635 255.917 239.719 253.978C243.309 247.514 250.996 242.888 252.085 235.579C252.717 231.352 245.944 229.511 243.926 225.782C243.095 224.24 242.797 221.806 243.96 220.513C245.517 218.773 248.276 218.324 250.619 218.274C268.818 217.578 287.122 216.582 305.262 218.223C320.369 219.616 334.744 225.931 349.846 227.324C353.486 227.622 356.365 223.446 360.01 223.247C378.199 222.054 396.498 222.053 414.693 223.147C423.196 223.645 431.316 229.015 439.774 228.02C444.643 227.473 446.562 220.263 451.261 218.821C454.08 217.975 456.502 222.152 459.446 222.152C461.385 222.152 462.37 219.219 464.289 218.92C470.878 217.876 477.66 217.479 484.289 218.274C487.924 218.672 490.813 222.55 494.463 222.351C516.019 221.108 537.152 215.54 558.688 213.999C560.707 213.849 561.801 216.732 563.72 217.378C565.436 217.975 567.345 217.579 569.155 217.529C633.629 214.794 698.049 210.667 762.558 209.026C764.586 208.976 765.675 211.759 767.605 212.406C769.266 212.953 771.2 213.003 772.851 212.406C774.691 211.759 775.685 209.472 777.56 208.975C780.797 208.03 784.268 208.23 787.634 208.23C792.656 208.23 797.763 207.931 802.681 208.975C804.67 209.373 805.709 212.656 807.718 212.357C817.783 210.915 826.952 205.197 837.051 203.954C840.602 203.506 843.655 206.888 847.175 207.484C850.587 208.081 854.122 208.031 857.563 207.584C878.89 204.998 900.182 202.014 921.372 198.484C928.282 197.34 934.811 192.764 941.785 193.46C948.974 194.156 954.487 200.77 961.53 202.361C963.474 202.809 964.516 199.081 966.509 199.081C970.034 199.031 973.066 202.262 976.592 202.262C978.604 202.262 979.764 198.781 981.748 199.13C990.24 200.572 997.738 205.992 1006.24 207.385C1008.24 207.733 1009.27 204.301 1011.27 204.003C1016.26 203.157 1022.69 200.672 1026.44 204.054C1029.42 206.788 1024.17 211.959 1024.49 215.987C1028.07 260.641 1034.9 304.995 1038.09 349.649C1038.35 353.229 1034.81 356.312 1034.77 359.893C1034.75 361.931 1038.12 363.075 1037.95 365.064C1034.66 403.154 1027.6 440.845 1024.49 478.935C1024.19 482.515 1027.77 485.599 1027.8 489.179C1027.82 491.118 1025.19 492.163 1024.61 494.003C1024.08 495.694 1024.08 497.581 1024.61 499.272C1025.19 501.112 1027.9 502.157 1027.8 504.097C1027.63 507.677 1024 510.511 1023.9 514.042C1022.69 560.436 1022.62 606.879 1023.9 653.273C1024 656.804 1027.89 659.54 1028.02 663.07C1028.15 666.7 1024.23 669.782 1024.64 673.362C1027.63 699.916 1035.46 725.822 1038.08 752.425C1038.6 757.647 1033.83 762.371 1033.93 767.642C1034.03 772.863 1038.51 777.338 1038.67 782.559C1040.1 828.953 1040.1 875.397 1038.67 921.791C1038.51 927.012 1033.53 931.487 1033.92 936.708C1035.2 953.516 1042 969.627 1043.57 986.434C1043.9 989.964 1040.19 992.8 1039.49 996.231C1038.8 999.563 1038.77 1003.14 1039.48 1006.47C1039.89 1008.36 1042.71 1009.36 1042.72 1011.3C1042.73 1013.24 1040.12 1014.28 1039.53 1016.12C1038.98 1017.86 1038.86 1019.85 1039.44 1021.54C1041.72 1028.2 1047.12 1033.87 1048 1040.83C1048.66 1046.05 1044.31 1050.83 1043.8 1056.05C1042.71 1067.04 1045.61 1078.38 1043.21 1089.12C1042.14 1093.94 1034.67 1095.73 1033.86 1100.6C1031.41 1115.37 1031.79 1130.69 1033.85 1145.51C1034.84 1152.72 1041.63 1158.19 1042.84 1165.3C1043.44 1168.88 1038.55 1171.76 1038.9 1175.39C1040.33 1190.46 1046.48 1204.78 1048.03 1219.85C1048.39 1223.38 1044.66 1226.36 1044.5 1229.94C1044.32 1233.92 1048.09 1237.75 1047.04 1241.52C1046 1245.3 1042.73 1249.03 1038.96 1250.08C1036.84 1250.73 1035.04 1247.19 1034.77 1245.01C1034.54 1243.07 1037.3 1241.92 1037.75 1240.03C1037.9 1239.34 1036.95 1238.39 1036.28 1238.54C1034.4 1238.99 1033.23 1241.52 1031.29 1241.52C1029.36 1241.52 1028.25 1238.49 1026.32 1238.54C1024.38 1238.59 1023.32 1241.18 1021.48 1241.72C1019.81 1242.27 1017.92 1242.17 1016.24 1241.72C1013.4 1240.98 1011.01 1237.4 1008.19 1238.19C1003.43 1239.59 1001.43 1247.2 996.486 1247.34C991.882 1247.49 989.781 1240.68 985.491 1238.99C984.039 1238.39 983.111 1241.57 981.553 1241.52C979.623 1241.43 977.262 1236.75 976.57 1238.54C975.176 1242.17 979.576 1246.45 978.257 1250.13C977.464 1252.32 973.93 1252.17 971.598 1252.37C968.201 1252.71 964.671 1252.66 961.372 1251.82C953.081 1249.58 945.365 1245.55 937.114 1243.22C935.379 1242.72 933.287 1242.47 931.702 1243.37C930.282 1244.11 930.579 1246.65 929.207 1247.49C923.499 1251.07 916.608 1252.56 911.014 1256.29C910.225 1256.84 913.766 1258.18 912.862 1258.48C901.189 1262.21 889.249 1265.4 877.126 1267.23C874.868 1267.58 871.652 1266.98 870.673 1264.95C869.839 1263.16 873.21 1261.81 873.651 1259.92C873.808 1259.23 872.778 1258.09 872.184 1258.43C868.519 1260.62 866.54 1265.79 862.352 1266.64C850.935 1268.93 839.04 1268.18 827.43 1267.28C822.835 1266.99 818.782 1262.16 814.262 1263.06C809.449 1264.05 807.505 1271.01 802.771 1272.26C796.252 1274.05 789.191 1272.7 782.532 1271.61C780.613 1271.31 779.663 1268.83 777.823 1268.18C776.172 1267.58 774.109 1267.33 772.577 1268.18C769.161 1270.07 767.679 1275.69 763.781 1275.89C760.38 1276.08 759.589 1268.97 756.183 1269.02C751.151 1269.17 747.933 1275.34 743.02 1276.43C740.982 1276.88 739.783 1273 737.695 1273.15C709.6 1274.79 681.808 1280.46 653.689 1281.65C648.418 1281.85 643.679 1278.02 638.438 1277.43C631.864 1276.58 625.191 1277.18 618.567 1277.33C615.201 1277.43 611.745 1277.18 608.493 1278.07C606.613 1278.57 605.594 1281.31 603.65 1281.31C601.715 1281.31 600.746 1278.12 598.811 1278.12C595.286 1278.12 592.258 1281.26 588.732 1281.31C586.803 1281.31 585.689 1278.22 583.76 1278.32C580.214 1278.52 577.365 1282.25 573.815 1282.15C568.608 1281.95 564.108 1277.48 558.897 1277.48C553.671 1277.48 549.146 1281.6 543.959 1282.2C535.745 1283.2 527.351 1283.2 519.131 1282.2C515.501 1281.8 512.612 1277.93 508.962 1278.12C482.374 1279.57 456.179 1285.63 429.596 1287.13C425.966 1287.32 423.086 1282.85 419.457 1283.1C399.546 1284.34 380.084 1289.86 360.204 1291.45C358.185 1291.6 357.051 1288.27 355.022 1288.27C353.078 1288.27 352.079 1291.1 350.179 1291.5C346.852 1292.25 343.292 1292.25 339.975 1291.5C337.991 1291.05 336.942 1287.77 334.928 1288.07M858.692 1260.07C856.519 1259.48 854.425 1258.33 852.173 1258.28C851.452 1258.28 850.164 1259.53 850.776 1259.92C852.7 1261.12 855.127 1261.52 857.399 1261.57M633.495 998.168C639.785 993.743 648.035 991.157 652.371 984.793C658.979 975.046 662.142 963.212 664.976 951.825C665.459 949.836 661.819 948.643 661.834 946.654C661.839 944.714 664.444 943.669 665.026 941.829C665.553 940.138 665.553 938.251 665.026 936.56C664.444 934.72 661.824 933.675 661.834 931.736C661.844 929.797 664.822 928.801 665.071 926.911C666.155 918.657 666.891 910.154 665.737 901.949C664.051 889.916 660.287 878.232 656.622 866.646C652.55 853.767 647.781 841.136 642.555 828.655C639.701 821.843 636.29 815.279 632.421 808.964C625.827 798.273 619.651 787.083 611.223 777.735C604.376 770.127 595.793 764.161 587.131 758.741C577.797 752.873 567.619 748.448 557.529 744.022C546.64 739.248 535.735 734.325 524.268 731.193C522.682 730.745 521.717 734.325 520.136 733.878C516.799 732.983 514.959 729.104 511.762 727.762C510.822 727.364 510.056 729.8 509.156 729.352C505.402 727.363 503.493 722.193 499.36 721.199C495.87 720.354 492.653 725.127 489.112 724.53C482.151 723.337 476.477 718.015 469.679 716.076C466.308 715.131 462.554 715.182 459.177 716.127C455.055 717.221 451.838 720.602 447.825 722.044C429.287 728.806 408.527 730.447 391.66 740.691C382.396 746.31 377.215 757.349 373.112 767.394C370.566 773.61 372.063 780.819 372.501 787.532C372.67 790.118 373.57 792.703 374.903 794.891C376.146 796.98 378.105 798.571 380.024 800.063C386.374 805.035 392.182 811.152 399.641 814.136C404.335 816.025 410.118 815.975 414.822 814.136C419.531 812.296 421.262 805.781 425.911 803.792C439.759 797.825 454.21 792.206 469.207 790.863C473.518 790.465 475.224 797.625 479.336 798.968C481.226 799.564 482.593 795.141 484.448 795.887C493.796 799.517 501.389 806.676 510.419 811.052C517.918 814.682 526.282 816.225 533.85 819.705C535.869 820.6 536.819 823.235 538.862 824.081C541.448 825.175 544.78 823.882 547.187 825.324C551.194 827.711 554.839 831.041 557.261 835.019C566.659 850.483 575.127 866.597 582.347 883.205C586.276 892.205 588.936 901.851 590.567 911.547C591.696 918.26 591.835 925.322 590.557 932.035C588.941 940.538 582.134 947.946 582.009 956.599C581.895 964.803 584.903 973.455 589.881 980.019C593.789 985.141 601.616 985.539 606.872 989.318C610.209 991.705 611.472 996.877 615.36 998.219C618.15 999.115 620.601 994.938 623.54 994.888C625.484 994.888 626.563 997.523 628.413 998.12M760.086 991.506C765.536 986.036 771.996 981.412 776.441 975.146C780.265 969.676 783.507 963.461 784.482 956.897C786.436 943.67 786.341 930.143 785.078 916.867C783.408 899.264 780.548 881.662 775.715 864.606C769.335 842.13 760.459 820.45 751.563 798.82C741.907 775.399 731.688 752.127 720.092 729.551C718.391 726.22 713.603 725.226 711.997 721.845C711.325 720.452 715.358 719.209 714.528 717.916C710.54 711.551 703.792 707.374 699.197 701.457C691.306 691.263 685.195 679.777 677.169 669.732C672.336 663.666 666.577 658.395 660.755 653.273C659.193 651.881 656.672 651.882 655.195 650.44C651.63 646.859 650.158 641.24 645.926 638.455C643.371 636.814 639.179 640.393 636.782 638.504C634.594 636.763 637.2 632.439 635.474 630.251C631.6 625.328 626.568 621.101 620.92 618.465C618.662 617.421 615.793 621.1 613.58 619.956C608.2 617.122 605.34 610.807 600.194 607.624C597.364 605.834 593.307 607.177 590.423 605.536C587.22 603.647 586.087 599.072 582.715 597.531C581.293 596.885 580.408 599.817 578.911 600.265C577.241 600.762 575.212 601.11 573.675 600.265C569.941 598.226 567.897 593.504 563.869 592.112C562.044 591.515 560.881 594.696 559.041 595.292C557.321 595.839 555.376 595.839 553.621 595.392C528.738 589.475 504.403 581.17 479.301 576.247C472.708 574.954 465.716 575.452 459.142 576.844C444.444 580.027 429.074 582.563 415.971 589.973C409.447 593.652 406.001 601.46 403.142 608.372C402.381 610.212 406.215 611.504 406.235 613.493C406.259 615.432 402.903 616.576 403.261 618.465C403.753 621.101 407.383 622.146 408.333 624.632C411.719 633.533 412.127 643.426 416.08 652.078C417.681 655.559 420.854 658.743 424.509 659.986C429.347 661.627 434.921 661.477 439.824 660.035C446.348 658.145 452.171 654.267 457.755 650.389C460.818 648.25 462.23 644.124 465.473 642.284C466.502 641.737 467.307 644.919 468.367 644.372C471.325 642.88 472.076 636.914 475.368 637.311C479.008 637.759 479.127 643.825 482.051 646.013C487.148 649.892 492.782 653.373 498.933 655.113C503.856 656.456 509.211 655.76 514.263 655.014C515.82 654.765 516.585 651.732 518.077 652.229C522.324 653.671 524.706 658.842 529.022 660.035C530.946 660.582 532.065 656.407 534.034 656.755C536.734 657.202 537.952 660.682 540.379 661.975C549.086 666.55 558.922 668.936 567.236 674.207C576.838 680.274 586.231 687.086 593.7 695.639C595.634 697.877 591.775 702.252 593.685 704.489C594.938 705.981 596.778 701.906 598.677 701.508C599.592 701.309 600.447 702.302 601.034 702.999C603.093 705.535 604.197 708.816 606.504 711.103C611.402 716.026 617.782 719.309 622.471 724.431C626.006 728.259 627.538 733.631 630.885 737.658C635.887 743.675 643.072 747.8 647.373 754.314C652.794 762.569 655.041 772.465 659.606 781.217C662.565 786.836 667.85 791.312 669.899 797.329C670.541 799.218 666.413 800.51 666.801 802.45C667.363 805.234 670.889 806.526 672.236 809.012C682.33 827.809 693.27 846.258 701.032 866.148C706.109 879.127 708.317 893.098 710.49 906.922C711.271 911.844 710.793 917.016 709.824 921.939C709.451 923.828 706.502 924.824 706.587 926.763C706.741 930.344 709.908 933.228 710.48 936.708C711.017 940.04 710.674 943.52 709.824 946.802C709.336 948.641 706.636 949.687 706.587 951.626C706.532 953.565 709.605 954.659 709.56 956.599C709.52 958.538 706.955 959.583 706.368 961.423C705.821 963.163 705.607 965.152 706.298 966.842C708.267 971.517 710.898 975.991 714.115 979.92C718.138 984.842 721.852 991.009 727.834 993.147C735.671 995.982 744.487 994.241 752.806 993.793M460.729 992.451C476.328 986.782 492.742 983.002 507.53 975.493C510.444 974.002 511.116 969.776 511.583 966.544C512.304 961.521 512.14 956.25 511.006 951.327C507.695 936.857 504.433 922.139 498.326 908.614C496.581 904.735 490.549 904.386 488.247 900.806C487.402 899.513 490.45 898.421 490.768 896.879C490.912 896.183 490.102 895.237 489.405 895.287C486.283 895.635 483.379 898.917 480.375 897.972C476.875 896.878 476.323 890.067 472.658 890.166C466.039 890.365 461.082 896.828 454.742 898.717C451.44 899.712 447.77 899.415 444.399 898.669C442.499 898.271 441.42 894.89 439.551 895.437C436.627 896.283 433.981 898.967 433.096 901.901C432.529 903.74 436.592 905.033 436.07 906.873C435.185 910.056 431.933 911.995 429.611 914.332C428.109 915.824 426.751 918.11 424.638 918.309C422.719 918.508 421.555 915.725 419.66 915.327C418.9 915.178 417.831 916.22 418.005 916.966C421.724 933.425 426.065 949.786 431.077 965.946C432.579 970.77 433.713 976.291 437.487 979.672M898.483 982.357C907.486 978.33 917.21 975.643 925.492 970.273C930.734 966.892 935.42 962.168 938.298 956.599C939.189 954.908 935.687 953.614 935.104 951.774C934.577 950.084 934.533 948.146 935.107 946.505C935.745 944.666 938.29 943.719 938.562 941.829C939.508 935.116 939.951 928.155 938.639 921.492C936.216 909.21 930.655 897.775 927.477 885.691C922.852 868.088 918.038 850.485 915.245 832.484C914.934 830.495 919.049 829.252 918.409 827.312C917.063 823.285 911.278 821.643 910.246 817.515C909.391 814.084 913.629 810.953 913.435 807.422C913.18 802.798 911.385 798.223 908.964 794.245C906.839 790.765 901.451 789.62 900.178 785.791C899.259 782.957 903.59 780.521 903.481 777.587C903.426 776.095 900.313 776.493 899.783 775.101C895.924 764.957 895.552 753.569 890.642 743.923C885.685 734.176 876.176 727.364 870.685 717.916C869.896 716.574 873.661 715.479 873.221 713.988C872.254 710.656 868.526 708.717 867.089 705.584C866.385 704.043 868.136 701.805 867.077 700.512C864.206 696.932 858.752 695.837 856.216 691.958C855.36 690.666 858.498 689.672 858.951 688.18C859.458 686.54 859.766 684.502 858.951 682.96C853.799 673.214 848.115 663.665 841.382 654.963C838.807 651.631 833.919 650.587 831.373 647.205C830.677 646.31 834.172 645.268 833.402 644.423C825.933 636.119 816.226 630.051 808.593 621.896C802.92 615.829 798.216 608.919 793.656 601.957C788.763 594.548 786.078 585.596 780.285 578.833C766.844 563.12 752.205 548.302 736.367 534.976C720.863 521.998 703.593 511.207 686.617 500.168C675.732 493.107 664.892 485.649 652.868 480.776C633.838 473.018 614.038 467.052 593.998 462.527C590.87 461.831 587.877 466.255 584.799 465.36C581.283 464.316 580.612 458.549 577.086 457.554C574.237 456.709 571.696 461.58 568.842 460.834C564.735 459.74 563.158 453.725 559.031 452.681C555.615 451.836 552.368 456.707 548.947 455.862C544.815 454.818 542.801 449.846 539.136 447.658C537.659 446.763 535.735 447.012 534.014 447.012C529.002 447.012 523.895 446.613 518.987 447.658C517.083 448.055 516.227 451.088 514.278 451.088C510.768 451.088 507.784 448.254 504.328 447.658C500.917 447.061 497.332 446.862 493.95 447.558C481.116 450.343 468.779 455.118 455.985 458.052C442.788 461.085 428.178 459.542 416.045 465.559C409.293 468.891 406.15 477.245 403.261 484.206C402.52 485.996 406.235 487.24 406.235 489.179C406.235 491.118 403.261 492.212 403.261 494.151C403.261 496.091 406.354 497.185 406.235 499.124C406.016 502.704 402.794 505.539 402.336 509.069C401.695 514.042 400.904 519.56 402.997 524.135C405.275 529.058 409.556 533.535 414.564 535.673C419.248 537.711 425.036 537.362 429.879 535.721C435.931 533.732 440.257 528.263 445.881 525.23C451.758 522.097 457.591 517.273 464.249 517.373C468.59 517.472 470.5 523.54 474.234 525.728C475.706 526.623 477.67 526.723 479.336 526.325C482.782 525.529 485.611 522.446 489.147 522.297C492.667 522.148 495.701 525.478 499.226 525.478C501.171 525.478 502.15 522.544 504.07 522.246C509.112 521.401 514.417 521.052 519.405 522.146C534.119 525.428 548.529 530.102 562.671 535.323C565.167 536.218 566.251 539.749 568.827 540.395C570.349 540.743 571.343 537.264 572.795 537.86C575.863 539.103 576.718 543.678 579.801 544.921C581.263 545.518 582.129 542.635 583.635 542.187C585.306 541.69 587.335 541.342 588.866 542.187C592.606 544.226 594.649 548.948 598.672 550.34C600.502 550.937 601.671 547.707 603.516 547.16C605.181 546.613 607.23 546.313 608.752 547.208C610.224 548.004 609.93 550.59 611.327 551.535C616.628 555.115 622.143 558.845 628.344 560.436C630.347 560.933 631.615 556.707 633.629 557.204C638.537 558.348 642.888 561.479 646.747 564.712C649.964 567.447 650.909 572.469 654.449 574.756C655.752 575.602 656.946 571.575 658.363 572.221C665.111 575.255 671.088 579.929 676.692 584.752C678.795 586.542 679.133 589.823 681.092 591.762C692.967 603.646 706.089 614.189 718.018 626.024C722.399 630.35 726.651 634.924 729.943 640.145C731.091 641.935 729.609 644.819 730.957 646.46C733.866 650.04 739.132 651.283 741.936 654.963C746.924 661.477 749.435 669.632 753.885 676.594C756.765 681.069 759.728 685.695 763.855 689.076C764.75 689.822 765.745 686.39 766.685 687.037C769.405 689.026 770.703 692.506 772.448 695.341C774.909 699.418 778.127 703.248 779.29 707.823C779.688 709.414 776.028 710.408 776.635 711.9C777.863 715.032 782.438 715.878 783.716 718.912C784.457 720.702 781.021 722.639 781.831 724.38C783.477 727.96 786.988 730.447 790.12 732.834C790.578 733.182 791.13 731.391 791.523 731.838C794.521 735.071 797.773 738.454 799.175 742.631C799.693 744.172 796.102 745.166 796.525 746.707C797.42 750.089 800.995 752.127 802.552 755.21C802.82 755.757 801.169 756.205 801.518 756.653C803.437 759.387 807.316 760.631 808.579 763.665C809.175 765.156 804.949 766.547 806.048 767.69C807.321 768.983 809.961 765.504 811.423 766.598C814.958 769.283 818.116 773.113 819.071 777.439C819.722 780.372 815.073 782.858 815.659 785.842C816.4 789.522 821.701 791.163 822.541 794.843C823.506 799.069 819.692 803.493 820.642 807.67C822.532 816.073 828.663 823.035 830.776 831.389C836.256 852.97 837.996 875.397 843.317 897.028C848.448 917.863 854.336 938.599 862.093 958.638C864.555 964.953 868.856 970.62 873.709 975.394C877.341 978.974 881.997 981.858 886.942 983.052C888.876 983.549 890.068 980.07 892.057 979.971M1031.16 893.398C1031.75 891.21 1032.9 889.121 1032.94 886.883C1032.95 886.137 1031.67 884.895 1031.29 885.492C1030.07 887.382 1029.67 889.816 1029.64 892.104M479.54 520.605C477.307 520.058 472.907 521.302 472.847 519.014C472.792 516.777 477.243 516.876 479.455 517.373" fill="black"/>
</g>
<defs>
<filter id="filter0_d_46_119" x="0.0269623" y="0.0269623" width="1225.88" height="1503.95" filterUnits="userSpaceOnUse" color-interpolation-filters="sRGB">
<feFlood flood-opacity="0" result="BackgroundImageFix"/>
<feColorMatrix in="SourceAlpha" type="matrix" values="0 0 0 0 0 0 0 0 0 0 0 0 0 0 0 0 0 0 127 0" result="hardAlpha"/>
<feOffset/>
<feGaussianBlur stdDeviation="56.4865"/>
<feColorMatrix type="matrix" values="0 0 0 0 1 0 0 0 0 1 0 0 0 0 1 0 0 0 1 0"/>
<feBlend mode="normal" in2="BackgroundImageFix" result="effect1_dropShadow_46_119"/>
<feBlend mode="normal" in="SourceGraphic" in2="effect1_dropShadow_46_119" result="shape"/>
</filter>
</defs>
</svg>
